<?xml version="1.0" standalone="no"?>
<!DOCTYPE svg PUBLIC "-//W3C//DTD SVG 20010904//EN"
 "http://www.w3.org/TR/2001/REC-SVG-20010904/DTD/svg10.dtd">
<svg version="1.0" xmlns="http://www.w3.org/2000/svg"
 width="1625.000000pt" height="537.000000pt" viewBox="0 0 1625.000000 537.000000"
 preserveAspectRatio="xMidYMid meet">

<g transform="translate(0.000000,537.000000) scale(0.100000,-0.100000)"
fill="#000000" stroke="none">
<path d="M0 2685 l0 -2665 5905 0 5905 0 0 2665 0 2665 -3150 0 -3150 0 0
-215 0 -215 -55 0 -55 0 0 215 0 215 -2700 0 -2700 0 0 -2665z m11794 2584
c-6 -11 -64 -12 -64 -1 0 4 7 18 17 31 l16 24 19 -22 c10 -13 15 -27 12 -32z
m-11494 -164 c-11 -13 -7 -15 26 -17 l39 -1 -38 -4 c-34 -4 -37 -6 -25 -21 12
-15 11 -16 -4 -3 -21 16 -23 32 -6 49 17 17 23 15 8 -3z m737 -37 c-2 -13 -4
-5 -4 17 -1 22 1 32 4 23 2 -10 2 -28 0 -40z m-290 -5 c-3 -10 -5 -4 -5 12 0
17 2 24 5 18 2 -7 2 -21 0 -30z m4762 -205 c-1 -29 -3 -45 -6 -35 -4 15 -7 16
-21 5 -12 -9 -11 -6 2 10 30 35 11 38 -20 3 -15 -17 -36 -31 -46 -31 -15 0
-18 8 -18 50 l0 50 55 0 55 0 -1 -52z m-309 -298 c0 -5 -10 -10 -22 -9 -22 0
-22 1 -3 9 11 5 21 9 23 9 1 1 2 -3 2 -9z m-1647 -7 c-7 -2 -19 -2 -25 0 -7 3
-2 5 12 5 14 0 19 -2 13 -5z m320 0 c-7 -2 -21 -2 -30 0 -10 3 -4 5 12 5 17 0
24 -2 18 -5z m1060 0 c-7 -2 -19 -2 -25 0 -7 3 -2 5 12 5 14 0 19 -2 13 -5z
m6855 -325 c9 -9 12 -399 12 -1694 0 -1522 -2 -1683 -16 -1695 -11 -9 -20 -10
-32 -2 -16 9 -17 135 -20 1684 -1 921 0 1684 3 1697 6 24 34 29 53 10z m-8043
-729 c4 -6 -3 -9 -20 -7 -31 3 -52 -20 -42 -46 6 -14 14 -16 38 -11 24 5 30 4
27 -6 -3 -8 -19 -15 -36 -17 -26 -3 -34 1 -43 22 -6 13 -9 36 -5 50 5 22 12
26 41 26 18 0 37 -5 40 -11z m265 -39 c0 -38 -4 -50 -15 -50 -11 0 -15 12 -15
50 0 38 4 50 15 50 11 0 15 -12 15 -50z m218 12 c4 -43 -12 -62 -54 -62 l-34
0 0 51 0 50 43 -3 c40 -3 42 -5 45 -36z m372 -12 c0 -38 -4 -50 -15 -50 -11 0
-15 12 -15 50 0 38 4 50 15 50 11 0 15 -12 15 -50z m160 -16 c0 -69 -14 -80
-26 -18 -6 32 7 84 21 84 3 0 5 -30 5 -66z m87 50 c3 -8 -4 -25 -16 -38 l-22
-23 25 -5 c23 -5 26 -1 32 38 3 24 11 44 16 44 10 0 4 -73 -8 -92 -7 -12 -94
-10 -94 2 0 6 9 18 20 27 28 24 27 53 -2 45 -14 -3 -19 -2 -14 6 11 17 56 15
63 -4z m103 -34 c0 -27 -4 -50 -10 -50 -5 0 -10 16 -10 35 0 26 -3 33 -15 29
-21 -8 -19 13 3 25 29 17 32 13 32 -39z m95 6 c0 -42 -20 -64 -49 -53 -11 4
-16 18 -16 45 0 46 6 54 40 50 22 -3 25 -8 25 -42z m47 19 c8 -17 8 -37 2 -62
-15 -60 -29 -49 -29 22 0 69 8 81 27 40z m-1302 -35 c0 -16 5 -30 10 -30 6 0
10 14 10 30 0 20 5 30 15 30 10 0 15 -11 15 -35 0 -33 -2 -35 -34 -35 -26 0
-35 5 -40 23 -9 35 -7 47 9 47 10 0 15 -10 15 -30z m170 -5 c0 -19 -4 -35 -10
-35 -5 0 -10 14 -10 30 0 17 -4 30 -10 30 -5 0 -10 -13 -10 -30 0 -16 -4 -30
-10 -30 -5 0 -10 11 -10 24 0 14 -4 28 -10 31 -6 4 -10 -7 -10 -24 0 -21 -5
-31 -15 -31 -10 0 -15 11 -15 35 l0 35 55 0 55 0 0 -35z m120 31 c0 -2 3 -11
6 -20 5 -12 0 -16 -21 -16 -14 0 -24 -4 -20 -10 3 -5 13 -6 23 -3 13 5 14 3 6
-6 -27 -29 -65 6 -50 45 5 12 56 21 56 10z m190 -20 c0 -14 5 -28 10 -31 6 -4
10 7 10 24 0 21 5 31 15 31 10 0 15 -11 15 -35 0 -33 -2 -35 -34 -35 -26 0
-35 5 -40 23 -9 35 -7 47 9 47 9 0 15 -9 15 -24z m120 15 c0 -5 -7 -14 -15
-21 -21 -17 -19 -28 8 -33 13 -3 8 -5 -15 -6 -42 -1 -45 4 -23 36 14 20 13 22
-2 26 -10 3 -3 5 15 6 17 0 32 -3 32 -8z m80 -11 c9 -18 8 -20 -15 -20 -14 0
-25 -4 -25 -9 0 -5 10 -7 22 -3 14 3 19 2 14 -6 -20 -33 -74 6 -60 42 9 23 51
20 64 -4z m90 -15 c0 -24 -5 -35 -15 -35 -10 0 -15 10 -15 31 0 17 -4 28 -10
24 -5 -3 -10 -17 -10 -31 0 -13 -4 -24 -10 -24 -5 0 -10 16 -10 35 0 33 2 35
35 35 33 0 35 -2 35 -35z m118 13 c3 -14 -3 -18 -23 -18 -14 0 -24 -4 -21 -9
3 -5 16 -7 29 -4 17 4 19 3 11 -6 -29 -31 -76 4 -60 45 8 21 60 14 64 -8z
m-1005 -96 c-10 -10 -20 -17 -22 -16 -6 5 20 34 30 34 5 0 1 -8 -8 -18z m4211
2 c14 -14 16 -79 16 -568 0 -516 -1 -554 -17 -567 -15 -11 -16 -11 -5 1 9 11
12 138 12 564 0 497 -2 551 -17 568 -20 22 -11 24 11 2z m-3278 -105 c-15 -9
-16 -13 -5 -20 10 -6 11 -9 2 -9 -7 0 -13 -11 -13 -25 0 -14 -4 -25 -10 -25
-5 0 -10 11 -10 25 0 14 -4 25 -10 25 -5 0 -2 9 7 20 10 11 27 20 38 20 19 -1
19 -1 1 -11z m124 -28 c0 -22 5 -42 13 -44 6 -3 -4 -5 -23 -5 -19 0 -29 2 -22
5 6 2 12 20 12 38 0 18 -6 36 -12 38 -7 3 -3 6 10 6 19 1 22 -4 22 -38z m72
-6 c3 -42 2 -45 -22 -44 -14 0 -19 3 -12 6 6 2 12 20 12 38 0 18 -6 36 -12 38
-7 3 -3 6 8 6 19 1 22 -5 26 -44z m812 30 c-19 -14 -19 -14 0 -15 18 0 18 -1
4 -12 -9 -7 -18 -22 -21 -33 -4 -18 -5 -18 -6 2 0 12 -5 24 -11 28 -12 8 20
45 39 45 11 0 10 -4 -5 -15z m944 -2 c-2 -10 -11 -19 -21 -21 -16 -3 -17 -1
-5 17 16 25 31 27 26 4z m-2770 -30 c-2 -27 -8 -39 -20 -41 -10 -2 -18 1 -18
7 0 6 6 10 13 9 6 -2 13 9 15 24 2 19 -2 28 -15 31 -14 4 -13 5 5 6 21 1 23
-3 20 -36z m2567 9 c-20 -5 -19 -28 3 -42 15 -10 15 -10 -3 -8 -12 2 -21 12
-23 26 -2 12 -8 22 -14 22 -7 0 -6 5 2 15 9 11 16 12 31 2 16 -10 17 -13 4
-15z m465 18 c0 -5 8 -11 18 -11 16 -1 16 -2 0 -6 -10 -2 -18 -11 -18 -18 0
-8 8 -19 18 -25 15 -9 14 -10 -8 -8 -24 3 -42 38 -32 66 5 14 22 16 22 2z
m-2952 -27 c2 -8 -7 -13 -25 -14 l-28 -1 30 -13 30 -14 -28 -1 c-29 0 -43 19
-33 46 7 18 47 15 54 -3z m114 10 c-10 -4 -9 -8 4 -17 18 -14 12 -36 -11 -36
-8 0 -17 5 -21 12 -5 8 -2 9 9 5 10 -3 17 -2 17 2 0 5 -7 11 -15 15 -23 8 -18
26 8 25 12 0 16 -3 9 -6z m59 -33 c5 0 9 9 9 20 0 11 5 20 10 20 6 0 10 -13
10 -30 0 -25 -4 -30 -25 -30 -22 0 -25 4 -24 33 1 23 3 26 6 10 2 -13 9 -23
14 -23z m79 16 c0 -13 6 -27 13 -29 6 -3 -4 -5 -23 -5 -19 0 -29 2 -22 5 6 2
12 13 12 23 0 10 -6 21 -12 23 -7 3 -3 6 10 6 17 1 22 -5 22 -23z m65 14 c-17
-7 -17 -9 -2 -9 21 -1 23 -29 1 -38 -8 -3 -21 0 -27 7 -10 10 -8 12 5 7 10 -3
20 -2 23 2 2 5 -4 11 -15 14 -30 8 -24 27 8 26 24 0 25 -1 7 -9z m126 -30 c5
0 9 9 9 20 0 11 5 20 10 20 6 0 10 -13 10 -30 0 -25 -4 -30 -25 -30 -22 0 -25
4 -24 33 1 23 3 26 6 10 2 -13 9 -23 14 -23z m99 10 c0 -16 -4 -30 -10 -30 -5
0 -10 11 -10 25 0 34 -18 32 -23 -2 -4 -26 -4 -26 -6 5 -1 28 2 32 24 32 21 0
25 -5 25 -30z m68 13 c2 -8 -7 -13 -25 -14 l-28 -1 30 -13 30 -14 -28 -1 c-29
0 -43 19 -33 46 7 18 47 15 54 -3z m182 -7 c0 -13 6 -27 13 -29 6 -3 0 -6 -16
-6 -25 -1 -26 1 -15 19 11 17 10 22 -2 30 -13 8 -12 10 3 10 11 0 17 -8 17
-24z m220 10 c0 -8 -10 -16 -22 -19 -23 -4 -23 -4 2 -15 l25 -12 -25 3 c-19 1
-26 8 -28 30 -3 23 0 27 22 27 16 0 26 -6 26 -14z m198 -23 c-3 -32 -7 -38
-28 -40 -14 -1 -18 0 -7 3 11 4 17 15 17 34 0 19 -6 30 -17 33 -11 3 -7 5 10
6 27 1 28 -1 25 -36z m72 22 c0 -9 -9 -15 -22 -15 -23 -1 -23 -1 2 -16 l25
-14 -25 2 c-19 2 -26 10 -28 31 -3 23 0 27 22 27 16 0 26 -6 26 -15z m122 8
c-10 -4 -9 -8 4 -17 9 -7 14 -18 10 -24 -9 -15 -46 -16 -46 -2 0 6 8 10 18 10
16 1 16 1 0 11 -25 14 -22 29 5 28 12 0 16 -3 9 -6z m48 -13 c0 -11 5 -20 10
-20 6 0 10 9 10 20 0 11 5 20 10 20 6 0 10 -14 10 -31 0 -27 -3 -30 -27 -27
-22 2 -29 9 -31 31 -2 15 1 27 7 27 6 0 11 -9 11 -20z m92 -10 c4 -27 2 -30
-21 -29 -14 0 -20 3 -13 6 6 2 12 13 12 23 0 10 -6 21 -12 23 -7 3 -3 6 8 6
17 1 23 -6 26 -29z m65 23 c-17 -4 -17 -5 -1 -17 18 -14 12 -36 -11 -36 -8 0
-17 5 -21 12 -5 8 -2 9 9 5 10 -3 17 -2 17 2 0 5 -7 11 -15 15 -25 9 -17 26
13 25 18 -1 21 -3 9 -6z m223 -4 c0 -6 -9 -8 -20 -4 -16 5 -20 2 -20 -19 0
-14 -4 -26 -10 -26 -5 0 -10 14 -10 30 0 27 3 30 30 30 17 0 30 -5 30 -11z
m60 -19 c0 -25 -4 -30 -25 -30 -18 0 -25 5 -25 20 0 12 7 20 18 21 14 0 14 2
-3 9 -18 8 -17 9 8 9 24 1 27 -3 27 -29z m69 -2 c-2 -32 -2 -32 -6 -5 -5 33
-25 31 -34 -4 -6 -21 -7 -21 -8 9 -1 28 2 32 24 32 22 0 25 -4 24 -32z m54 22
c-29 -12 -30 -30 -2 -30 18 0 19 -2 9 -15 -17 -20 -40 -2 -40 31 0 20 5 24 28
23 26 0 26 -1 5 -9z m85 -23 c3 -26 1 -28 -24 -25 -35 4 -44 27 -13 35 22 6
22 7 3 15 -16 6 -15 7 6 5 19 -1 26 -8 28 -30z m54 3 c4 -27 2 -30 -21 -29
-14 0 -20 3 -13 6 6 2 12 13 12 23 0 10 -6 21 -12 23 -7 3 -3 6 8 6 17 1 23
-6 26 -29z m65 23 c-17 -4 -17 -5 -1 -17 9 -7 14 -18 10 -24 -9 -15 -46 -16
-46 -1 0 6 7 9 15 5 8 -3 15 -1 15 3 0 5 -7 11 -15 15 -25 9 -17 26 13 25 18
-1 21 -3 9 -6z m80 -10 c2 -6 -6 -13 -19 -15 l-23 -5 25 -11 25 -11 -27 0
c-27 -1 -46 28 -33 49 9 14 47 9 52 -7z m137 2 c4 -11 -2 -15 -22 -15 l-27 -1
25 -15 25 -14 -25 2 c-19 2 -26 10 -28 31 -3 23 0 27 21 27 14 0 27 -7 31 -15z
m196 -19 c0 -31 -23 -56 -38 -41 -3 3 0 5 6 5 20 0 14 58 -5 63 -11 3 -7 5 10
6 24 1 27 -2 27 -33z m140 4 c0 -25 -4 -30 -25 -30 -34 0 -36 40 -2 41 21 1
21 1 -3 9 l-25 8 28 1 c24 1 27 -3 27 -29z m50 12 c0 -10 5 -23 12 -30 9 -9 5
-12 -17 -11 -17 0 -24 3 -17 6 6 2 12 13 12 23 0 10 -6 21 -12 23 -8 3 -6 6 5
6 10 1 17 -6 17 -17z m230 7 c0 -6 -9 -8 -20 -4 -16 5 -20 2 -20 -19 0 -14 -4
-26 -10 -26 -5 0 -10 14 -10 30 0 27 3 30 30 30 17 0 30 -5 30 -11z m60 -4 c0
-9 -9 -15 -22 -15 -23 -1 -23 -1 2 -16 l25 -14 -25 2 c-19 2 -26 10 -28 31 -3
23 0 27 22 27 16 0 26 -6 26 -15z m50 -3 c0 -10 5 -23 12 -30 9 -9 6 -12 -15
-12 -25 0 -26 2 -15 20 11 17 10 22 -2 30 -13 8 -12 10 3 10 10 0 17 -7 17
-18z m80 9 c0 -6 -4 -13 -10 -16 -15 -10 -12 -23 8 -28 9 -3 2 -5 -16 -6 -32
-1 -32 -1 -17 23 15 23 15 25 -2 29 -12 3 -9 5 10 6 15 0 27 -3 27 -8z m74 -6
c4 -11 -2 -15 -22 -15 l-27 -1 25 -14 c24 -14 24 -14 3 -15 -22 0 -40 31 -28
50 9 15 42 12 49 -5z m136 -15 c0 -25 -4 -30 -24 -30 -32 0 -43 30 -14 38 21
5 21 6 2 13 -16 6 -15 8 9 8 24 1 27 -3 27 -29z m68 -2 c2 -16 -1 -28 -7 -28
-6 0 -11 12 -11 26 0 14 -4 23 -10 19 -5 -3 -10 -15 -10 -26 0 -10 -4 -19 -10
-19 -5 0 -10 14 -10 31 0 27 3 30 28 27 21 -2 28 -9 30 -30z m47 22 c-17 -7
-17 -9 -2 -9 25 -1 23 -41 -3 -41 -11 0 -20 5 -20 11 0 5 4 8 9 4 5 -3 12 -1
16 5 3 5 -1 10 -9 10 -9 0 -16 7 -16 15 0 9 9 15 23 14 21 0 21 -1 2 -9z
m-2497 -42 c-6 -18 -25 -21 -25 -3 0 8 7 15 15 15 7 0 12 -5 10 -12z m2572 2
c0 -5 -4 -10 -10 -10 -5 0 -10 5 -10 10 0 6 5 10 10 10 6 0 10 -4 10 -10z
m350 -935 c-7 -9 -15 -13 -19 -10 -3 3 1 10 9 15 21 14 24 12 10 -5z m-4196
-21 c3 -8 2 -12 -4 -9 -6 3 -10 10 -10 16 0 14 7 11 14 -7z m4357 -174 c17
-10 19 -22 19 -115 0 -93 -2 -105 -19 -115 -13 -7 -362 -10 -1060 -10 -932 0
-1041 2 -1055 16 -12 12 -16 37 -16 109 0 72 4 97 16 109 14 14 123 16 1055
16 698 0 1047 -3 1060 -10z m-3364 -56 c-3 -3 -12 -4 -19 -1 -8 3 -5 6 6 6 11
1 17 -2 13 -5z m51 -30 c6 -2 12 0 12 4 0 4 25 7 55 7 l55 0 0 -38 0 -38 -71
2 c-49 1 -74 -2 -79 -11 -14 -22 -40 14 -40 54 0 34 1 36 28 30 15 -3 33 -7
40 -10z m7092 -1891 c-1 -14 -27 -43 -38 -43 -10 0 -32 30 -32 44 0 3 16 6 35
6 19 0 35 -3 35 -7z"/>
<path d="M4170 3465 c0 -24 5 -35 14 -35 20 0 30 38 16 55 -20 24 -30 17 -30
-20z"/>
<path d="M5006 3483 c-4 -13 -3 -31 3 -40 9 -17 10 -17 17 0 3 10 2 28 -3 40
l-10 22 -7 -22z"/>
<path d="M4040 3460 c0 -5 5 -10 10 -10 6 0 10 5 10 10 0 6 -4 10 -10 10 -5 0
-10 -4 -10 -10z"/>
<path d="M4430 3459 c0 -5 5 -7 10 -4 6 3 10 8 10 11 0 2 -4 4 -10 4 -5 0 -10
-5 -10 -11z"/>
<path d="M4848 3223 c7 -3 16 -2 19 1 4 3 -2 6 -13 5 -11 0 -14 -3 -6 -6z"/>
<path d="M5930 3199 c0 -5 5 -7 10 -4 6 3 10 8 10 11 0 2 -4 4 -10 4 -5 0 -10
-5 -10 -11z"/>
<path d="M4680 1945 c0 -8 5 -15 10 -15 6 0 10 7 10 15 0 8 -4 15 -10 15 -5 0
-10 -7 -10 -15z"/>
<path d="M4741 1944 c0 -11 3 -14 6 -6 3 7 2 16 -1 19 -3 4 -6 -2 -5 -13z"/>
<path d="M5422 5208 l3 -143 30 0 30 0 3 143 3 142 -36 0 -36 0 3 -142z"/>
<path d="M12110 2680 l0 -2670 330 0 c318 0 330 1 340 20 6 11 22 23 35 26 36
9 31 27 -5 19 -19 -4 -30 -3 -30 4 0 6 18 11 39 11 39 0 40 -1 43 -37 2 -28 8
-39 22 -41 14 -3 17 0 12 13 -17 44 -19 68 -5 63 7 -2 16 -15 20 -29 l6 -24 8
28 c4 15 14 27 22 27 10 0 13 -6 9 -16 -17 -45 -18 -64 -3 -64 11 0 17 12 19
38 3 34 6 37 37 40 20 2 37 -2 42 -10 17 -26 9 -38 -26 -38 -19 0 -35 -4 -35
-9 0 -18 19 -22 40 -9 17 11 22 11 30 -1 6 -11 9 -4 12 25 3 37 5 39 41 42 28
2 37 0 37 -12 0 -18 -16 -21 -25 -6 -13 22 -35 10 -35 -19 0 -36 15 -48 37
-29 13 10 17 10 20 1 3 -7 18 -13 34 -13 27 0 29 2 29 40 0 50 18 53 22 3 4
-52 26 -54 34 -4 8 53 24 53 24 1 0 -22 5 -40 10 -40 6 0 10 18 10 40 l0 40
40 0 40 0 0 -40 c0 -38 2 -40 30 -40 26 0 30 4 30 28 0 41 13 54 50 50 33 -3
56 -28 27 -28 -9 0 -17 5 -19 12 -7 21 -38 0 -38 -27 0 -28 27 -45 40 -25 4 7
15 10 24 7 13 -5 16 2 16 48 0 30 5 55 10 55 6 0 10 -9 10 -20 0 -16 7 -20 30
-20 28 0 30 -2 30 -41 0 -24 4 -38 10 -34 6 3 10 22 10 41 0 49 20 42 21 -8
l2 -43 6 40 c6 37 9 40 40 43 20 2 37 -2 42 -10 17 -27 9 -38 -27 -38 -31 0
-35 -2 -24 -15 9 -11 16 -12 31 -2 16 10 21 9 29 -3 7 -11 10 -3 10 28 l0 43
43 -3 c41 -3 42 -4 45 -40 l3 -38 55 0 54 0 0 40 c0 51 18 53 22 3 4 -52 32
-52 36 -1 4 51 22 48 22 -3 0 -24 4 -38 10 -34 6 3 10 22 10 41 0 33 1 34 40
34 l40 0 0 -40 c0 -38 2 -40 30 -40 28 0 30 2 30 40 l0 40 40 0 c33 0 42 -4
49 -22 l8 -22 6 23 c5 19 11 22 44 19 36 -3 38 -5 41 -41 4 -46 22 -39 22 9 0
19 5 34 10 34 6 0 10 -16 10 -35 0 -25 4 -33 14 -29 8 3 17 1 21 -5 8 -13 35
-15 35 -2 0 5 -13 14 -30 20 -20 7 -30 17 -30 30 0 18 6 21 40 21 22 0 40 -4
40 -10 0 -5 -13 -7 -30 -3 -37 7 -39 -4 -4 -17 14 -6 28 -20 31 -31 4 -16 8
-17 14 -7 6 10 11 10 21 0 14 -14 38 -16 38 -3 0 5 -13 14 -30 20 -20 7 -30
17 -30 30 0 17 6 21 34 21 19 0 38 -4 41 -10 4 -6 -6 -7 -25 -4 -37 8 -40 -3
-4 -16 14 -6 29 -20 32 -33 5 -18 8 -14 12 18 5 39 6 40 45 40 39 0 40 -1 46
-40 l6 -40 2 43 1 42 40 0 c39 0 40 -1 46 -40 6 -36 10 -40 34 -40 23 0 27 4
23 19 -3 10 0 28 6 40 20 36 91 23 91 -16 0 -8 -13 -13 -35 -13 -19 0 -35 -4
-35 -9 0 -18 19 -22 40 -9 17 11 22 11 30 -2 7 -11 10 1 8 38 -1 49 13 84 28
69 4 -3 6 -31 5 -62 l-1 -55 34 0 c33 0 35 2 38 38 3 32 7 37 31 40 19 2 27 9
27 23 0 10 5 19 10 19 6 0 10 -26 11 -57 l1 -58 10 38 c10 36 12 38 47 35 29
-2 37 -8 39 -25 3 -20 -1 -23 -34 -23 -36 0 -37 -1 -22 -17 14 -14 19 -14 33
-3 14 12 18 11 26 -1 6 -10 9 -1 9 29 0 31 4 42 15 42 10 0 15 -10 15 -34 0
-38 17 -57 31 -35 5 8 9 26 9 42 0 15 5 27 10 27 6 0 10 -18 10 -40 0 -43 13
-52 29 -22 7 14 6 25 -5 40 -14 21 -13 21 21 20 37 -1 42 -7 24 -25 -8 -8 -8
-17 0 -32 12 -21 15 -21 401 -21 l390 0 0 2670 0 2670 -2060 0 -2060 0 0
-2670z m938 2378 c-3 -63 -3 -63 -33 -63 -23 0 -31 5 -33 23 -2 12 1 22 7 22
6 0 11 -7 11 -16 0 -9 6 -14 13 -12 7 3 13 26 15 56 2 29 8 52 13 52 6 0 9
-26 7 -62z m342 37 c0 -14 -4 -25 -10 -25 -5 0 -10 11 -10 25 0 14 5 25 10 25
6 0 10 -11 10 -25z m430 -40 c0 -37 -4 -65 -10 -65 -6 0 -10 28 -10 65 0 37 4
65 10 65 6 0 10 -28 10 -65z m40 0 c0 -37 -4 -65 -10 -65 -6 0 -10 28 -10 65
0 37 4 65 10 65 6 0 10 -28 10 -65z m240 12 c0 -29 -5 -58 -12 -65 -19 -19
-48 -14 -57 11 -11 28 -3 37 13 14 21 -28 26 -20 26 38 0 42 3 55 15 55 11 0
15 -13 15 -53z m317 47 c-3 -3 -12 -4 -19 -1 -8 3 -5 6 6 6 11 1 17 -2 13 -5z
m-1786 -35 c17 -33 -36 -109 -78 -109 -34 0 -80 72 -65 104 9 20 17 23 71 23
50 1 63 -2 72 -18z m520 -16 c8 -21 5 -23 -26 -23 -24 0 -35 -5 -35 -15 0 -18
36 -20 43 -2 2 6 8 9 12 5 16 -15 -5 -38 -34 -38 -24 0 -32 5 -37 25 -3 14 -3
37 0 51 6 21 12 25 38 22 21 -2 33 -10 39 -25z m191 13 c4 -6 8 -28 8 -48 0
-27 -4 -38 -15 -38 -11 0 -15 11 -15 40 0 22 -4 40 -10 40 -5 0 -10 -18 -10
-40 0 -29 -4 -40 -15 -40 -11 0 -15 11 -15 40 0 29 -4 40 -15 40 -11 0 -15
-11 -15 -40 0 -22 -4 -40 -10 -40 -5 0 -10 22 -10 50 l0 50 58 -1 c31 -1 60
-7 64 -13z m138 -13 c0 -16 3 -38 6 -49 5 -20 2 -22 -37 -20 -34 1 -45 5 -47
20 -5 22 13 36 46 36 12 0 22 5 22 11 0 7 -12 9 -35 5 -20 -4 -35 -3 -35 3 0
12 18 19 53 20 23 1 27 -3 27 -26z m102 2 c15 -33 -3 -75 -32 -75 -11 0 -20
-7 -20 -15 0 -8 -7 -15 -15 -15 -12 0 -15 14 -15 65 l0 65 35 0 c28 0 38 -5
47 -25z m96 13 c7 -7 12 -24 12 -38 0 -30 -17 -50 -42 -50 -10 0 -18 -7 -18
-15 0 -8 -7 -15 -15 -15 -12 0 -15 14 -15 65 l0 65 33 0 c18 0 38 -5 45 -12z
m100 0 c23 -23 13 -38 -23 -38 -19 0 -35 -5 -35 -10 0 -16 33 -26 38 -12 4 13
32 17 32 4 0 -15 -24 -32 -45 -32 -28 0 -45 19 -45 50 0 31 17 50 45 50 12 0
26 -5 33 -12z m183 -15 c8 -21 5 -23 -26 -23 -24 0 -35 -5 -35 -15 0 -18 36
-20 43 -2 2 6 8 9 12 5 16 -15 -5 -38 -34 -38 -24 0 -32 5 -37 25 -3 14 -3 37
0 51 6 21 12 25 38 22 21 -2 33 -10 39 -25z m239 8 c15 -29 13 -31 -30 -31
-31 0 -38 -3 -34 -15 7 -17 44 -21 44 -5 0 6 11 10 24 10 14 0 28 -4 31 -10 8
-13 35 -13 35 0 0 5 -11 12 -25 16 -18 4 -25 13 -25 31 0 21 4 24 32 21 17 -2
33 -9 36 -15 2 -9 -5 -11 -29 -6 -23 4 -30 3 -25 -5 4 -7 14 -12 21 -12 8 0
30 -9 50 -20 39 -22 55 -25 55 -11 0 5 -14 14 -31 20 -43 15 -37 46 10 46 19
0 36 -6 38 -12 3 -9 -5 -11 -29 -7 -23 5 -30 3 -23 -4 6 -5 19 -12 30 -14 14
-2 20 -11 20 -28 0 -20 -6 -26 -30 -28 -18 -2 -33 2 -41 12 -10 15 -12 15 -18
1 -7 -18 -62 -20 -69 -2 -3 9 -7 9 -20 -1 -9 -7 -28 -12 -44 -10 -24 3 -28 8
-31 36 -2 19 -1 40 2 48 8 21 63 18 76 -5z m220 -31 c0 -38 -4 -50 -15 -50
-11 0 -15 12 -15 50 0 38 4 50 15 50 11 0 15 -12 15 -50z m88 38 c7 -7 12 -16
12 -20 0 -13 -28 -9 -32 4 -7 19 -38 1 -38 -22 0 -22 31 -41 37 -23 2 6 24 17
49 24 47 14 62 35 19 26 -16 -3 -24 0 -22 7 2 6 19 11 38 11 33 0 34 -1 37
-46 l3 -46 -38 -1 c-20 -1 -40 4 -45 11 -6 9 -10 9 -20 -1 -38 -38 -93 11 -70
63 13 27 49 34 70 13z m142 -78 c0 -5 -7 -10 -15 -10 -8 0 -15 5 -15 10 0 6 7
10 15 10 8 0 15 -4 15 -10z m-1796 -265 c16 -16 13 -35 -11 -70 -18 -27 -17
-33 10 -38 12 -2 1 -5 -25 -6 -27 0 -48 2 -48 5 0 4 14 22 30 41 41 46 40 67
-2 57 -29 -6 -31 -5 -19 10 17 20 45 21 65 1z m206 -31 c0 -58 -14 -84 -46
-84 -25 0 -43 24 -29 38 4 4 10 1 12 -5 11 -31 23 -8 23 42 0 48 2 55 20 55
17 0 20 -7 20 -46z m370 36 c0 -5 -7 -10 -15 -10 -8 0 -15 5 -15 10 0 6 7 10
15 10 8 0 15 -4 15 -10z m580 0 c0 -5 -12 -11 -27 -11 l-28 -2 28 -4 c25 -4
27 -8 27 -54 0 -37 -4 -49 -15 -49 -11 0 -15 11 -15 40 0 22 -4 40 -10 40 -5
0 -10 -18 -10 -40 0 -28 -4 -40 -14 -40 -18 0 -27 87 -12 113 12 18 76 25 76
7z m30 -55 c0 -37 -4 -65 -10 -65 -6 0 -10 28 -10 65 0 37 4 65 10 65 6 0 10
-28 10 -65z m40 0 c0 -51 -3 -65 -15 -65 -12 0 -15 14 -15 65 0 51 3 65 15 65
12 0 15 -14 15 -65z m240 55 c0 -5 -4 -10 -10 -10 -5 0 -10 5 -10 10 0 6 5 10
10 10 6 0 10 -4 10 -10z m370 0 c0 -5 -4 -10 -10 -10 -5 0 -10 5 -10 10 0 6 5
10 10 10 6 0 10 -4 10 -10z m210 1 c0 -5 -6 -12 -12 -14 -7 -3 4 -6 25 -6 20
-1 37 -6 37 -12 0 -8 4 -8 14 0 8 7 27 11 43 9 26 -3 28 -7 31 -51 l3 -48 -43
3 c-35 2 -43 7 -43 23 0 14 10 23 33 30 46 13 40 24 -13 22 l-45 -2 0 -37 c0
-27 -4 -38 -15 -38 -11 0 -15 12 -15 46 0 27 -4 43 -10 39 -5 -3 -10 -24 -10
-46 0 -27 -4 -39 -14 -39 -18 0 -27 87 -12 113 11 18 46 24 46 8z m470 -1 c0
-5 -4 -10 -10 -10 -5 0 -10 5 -10 10 0 6 5 10 10 10 6 0 10 -4 10 -10z m381
-7 c5 -86 3 -113 -8 -113 -7 0 -15 12 -18 28 -4 15 -8 36 -10 46 -5 22 11 56
25 56 6 0 10 -8 11 -17z m-3121 -23 c6 -8 10 -20 10 -26 0 -20 -64 -93 -81
-93 -22 -1 -79 64 -79 89 0 32 23 45 84 45 39 0 60 -5 66 -15z m520 -16 c14
-35 14 -34 -25 -34 -19 0 -35 -4 -35 -9 0 -17 21 -23 36 -10 17 14 33 4 17
-12 -6 -6 -23 -9 -39 -7 -31 3 -41 28 -30 74 9 35 63 34 76 -2z m138 7 c3 -10
-2 -12 -22 -7 -15 4 -26 2 -26 -4 0 -5 6 -10 13 -10 7 0 22 -6 32 -14 16 -12
17 -16 6 -30 -17 -20 -55 -21 -71 -1 -14 17 0 21 17 4 6 -6 17 -8 23 -4 8 5 1
14 -19 26 -34 21 -37 29 -19 47 16 16 60 11 66 -7z m42 -27 c0 -59 24 -55 28
4 2 29 8 42 18 42 10 0 14 -13 14 -51 l0 -50 -37 3 c-38 3 -38 3 -41 51 -2 28
1 47 7 47 6 0 11 -20 11 -46z m100 -4 c0 -38 -4 -50 -15 -50 -11 0 -15 12 -15
50 0 38 4 50 15 50 11 0 15 -12 15 -50z m88 31 c3 -10 -2 -12 -22 -7 -15 4
-26 2 -26 -4 0 -5 6 -10 14 -10 8 0 22 -7 31 -16 12 -12 13 -19 4 -30 -15 -18
-53 -18 -69 1 -10 12 -10 15 3 15 9 0 19 -5 22 -10 4 -6 11 -8 17 -4 5 3 -4
15 -21 25 -34 21 -37 29 -19 47 16 16 60 11 66 -7z m92 -20 c0 -36 14 -61 27
-48 2 3 7 24 10 46 8 58 23 51 23 -10 l0 -50 -42 3 -43 3 -3 48 c-2 37 0 47
12 47 12 0 16 -10 16 -39z m150 20 c15 -30 13 -81 -4 -81 -10 0 -16 13 -18 38
-2 20 -7 37 -13 37 -5 0 -11 -17 -13 -37 -2 -25 -8 -38 -18 -38 -10 0 -14 13
-14 50 l0 50 35 0 c24 0 37 -6 45 -19z m98 7 c7 -7 12 -20 12 -30 0 -14 -8
-18 -35 -18 -19 0 -35 -4 -35 -9 0 -18 19 -22 39 -9 11 7 24 9 28 5 10 -10
-16 -27 -42 -27 -28 0 -45 19 -45 50 0 31 17 50 45 50 12 0 26 -5 33 -12z
m322 -7 c17 -32 12 -41 -25 -41 -34 0 -46 -12 -24 -26 6 -3 16 -1 22 5 6 6 17
11 25 11 12 0 12 -3 2 -15 -26 -31 -90 -10 -90 30 0 49 68 76 90 36z m140 -46
c0 -50 -4 -67 -15 -72 -9 -3 -19 -2 -23 2 -4 4 -1 10 6 12 8 3 12 26 12 64 0
33 4 59 10 59 6 0 10 -28 10 -65z m94 43 c23 -33 20 -38 -20 -38 -24 0 -34 -4
-31 -12 5 -14 11 -14 41 -2 14 5 17 3 14 -7 -6 -18 -55 -24 -74 -8 -30 25 -9
89 31 89 13 0 31 -10 39 -22z m140 7 c4 -12 0 -14 -19 -9 -31 8 -33 -8 -2 -21
33 -15 29 -49 -7 -53 -16 -2 -33 1 -39 7 -16 16 0 26 18 11 11 -9 19 -10 26
-3 7 7 1 14 -20 21 -29 10 -41 38 -24 55 12 13 61 7 67 -8z m48 -27 c2 -24 8
-43 13 -43 6 0 11 19 13 43 2 28 8 42 18 42 10 0 14 -13 14 -50 0 -50 0 -50
-33 -50 -43 0 -57 15 -57 62 0 56 28 52 32 -4z m88 -8 c0 -27 -4 -50 -10 -50
-5 0 -10 23 -10 50 0 28 5 50 10 50 6 0 10 -22 10 -50z m88 32 c3 -9 -3 -11
-24 -6 -19 5 -25 4 -20 -5 4 -6 13 -11 20 -11 8 0 19 -7 26 -15 16 -20 -3 -45
-35 -45 -12 0 -28 7 -35 15 -10 12 -10 15 2 15 8 0 19 -5 26 -12 9 -9 15 -9
23 -1 9 9 5 14 -14 18 -38 10 -53 31 -37 51 15 17 61 15 68 -4z m360 -34 c2
-38 0 -48 -12 -48 -12 0 -16 10 -16 40 0 40 -13 53 -24 24 -3 -9 -6 -27 -6
-40 0 -13 -4 -24 -10 -24 -5 0 -10 23 -10 51 l0 50 38 -3 c37 -3 37 -3 40 -50z
m90 40 c16 -16 15 -28 -3 -28 -8 0 -15 5 -15 10 0 6 -7 10 -15 10 -10 0 -15
-10 -15 -29 0 -31 17 -51 29 -34 3 5 25 18 48 29 47 21 58 40 17 30 -19 -5
-25 -3 -22 6 3 7 20 13 39 13 33 0 34 -1 39 -47 l6 -48 -56 4 c-68 4 -79 0
-73 -25 4 -14 0 -19 -15 -19 -16 0 -19 5 -15 21 4 14 0 25 -11 31 -9 5 -16 20
-16 33 0 44 50 71 78 43z m142 -38 c0 -27 -4 -50 -10 -50 -5 0 -10 23 -10 50
0 28 5 50 10 50 6 0 10 -22 10 -50z m84 34 c5 -13 1 -15 -19 -10 -33 8 -32 -7
1 -23 34 -15 28 -45 -10 -49 -29 -4 -55 12 -43 25 4 4 13 1 19 -5 15 -15 28
-15 28 -2 0 6 -11 15 -25 20 -24 9 -34 38 -18 53 13 14 61 7 67 -9z m94 4 c7
-7 12 -20 12 -30 0 -13 -8 -18 -30 -18 -16 0 -30 -4 -30 -8 0 -17 13 -21 31
-9 10 6 22 8 26 4 10 -10 -16 -27 -42 -27 -28 0 -45 19 -45 50 0 31 17 50 45
50 12 0 26 -5 33 -12z m150 0 c7 -7 12 -20 12 -30 0 -14 -8 -18 -36 -18 -32 0
-35 -2 -24 -15 9 -11 16 -13 24 -5 5 5 16 10 24 10 12 0 12 -3 2 -15 -14 -17
-47 -19 -69 -6 -17 11 -18 56 -1 76 15 18 51 20 68 3z m-2788 -78 c0 -5 -4
-10 -10 -10 -5 0 -10 5 -10 10 0 6 5 10 10 10 6 0 10 -4 10 -10z m1311 -27
c-9 -16 -10 -14 -11 12 0 21 3 26 11 18 8 -8 8 -16 0 -30z m-1411 -63 c0 -5
-7 -10 -15 -10 -8 0 -15 5 -15 10 0 6 7 10 15 10 8 0 15 -4 15 -10z m180 0 c0
-5 -7 -10 -15 -10 -8 0 -15 5 -15 10 0 6 7 10 15 10 8 0 15 -4 15 -10z m94
-33 c8 -6 8 -10 -1 -14 -15 -6 -17 -49 -3 -58 15 -9 12 -25 -5 -25 -8 0 -17
12 -20 28 -4 15 -8 35 -10 46 -2 10 1 30 7 45 10 23 12 24 16 6 2 -11 9 -24
16 -28z m196 33 c0 -5 -7 -10 -15 -10 -8 0 -15 5 -15 10 0 6 7 10 15 10 8 0
15 -4 15 -10z m-440 -25 c0 -33 -15 -33 -16 0 -1 14 2 25 7 25 5 0 9 -11 9
-25z m1274 -11 c34 -33 7 -98 -37 -92 -12 2 -28 15 -36 29 -13 24 -13 29 2 53
20 29 48 34 71 10z m-1306 -56 c-3 -59 -5 -63 -28 -65 -14 -1 -19 0 -12 3 7 4
12 27 12 65 0 47 3 59 15 59 13 0 15 -11 13 -62z m132 10 l6 -48 -42 0 c-34 0
-44 4 -49 20 -9 27 1 40 30 40 13 0 27 5 31 11 4 8 -3 9 -25 4 -17 -4 -31 -2
-31 3 0 16 14 23 45 20 28 -3 30 -6 35 -50z m50 2 c0 -38 -4 -50 -15 -50 -11
0 -15 12 -15 50 0 38 4 50 15 50 11 0 15 -12 15 -50z m242 37 c15 -24 8 -37
-22 -37 -20 0 -30 -5 -30 -15 0 -18 36 -20 43 -2 2 6 8 9 12 5 16 -15 -5 -38
-35 -38 -34 0 -53 31 -43 70 5 20 4 21 -16 11 -15 -9 -21 -21 -21 -46 0 -19
-4 -35 -10 -35 -5 0 -10 22 -10 49 l0 50 62 0 c37 -1 66 -6 70 -12z m48 -37
c0 -38 -4 -50 -15 -50 -11 0 -15 12 -15 50 0 38 4 50 15 50 11 0 15 -12 15
-50z m100 42 c0 -4 -14 -21 -32 -37 l-32 -30 32 -3 c48 -5 38 -22 -13 -22 -25
0 -45 2 -45 5 0 9 34 59 45 67 5 4 0 8 -12 8 -12 0 -25 5 -28 10 -4 6 12 10
39 10 25 0 46 -3 46 -8z m88 -19 c3 -20 -1 -23 -32 -23 -20 0 -36 -5 -36 -10
0 -17 29 -23 45 -10 18 15 30 7 22 -15 -4 -9 -19 -15 -37 -15 -39 0 -59 36
-42 76 10 21 18 25 45 22 24 -2 33 -8 35 -25z m150 -24 l3 -47 -43 2 c-39 1
-43 3 -43 26 0 17 6 26 20 28 11 2 25 8 30 14 7 7 -1 8 -25 3 -32 -7 -33 -6
-21 9 9 11 26 16 45 14 29 -3 31 -6 34 -49z m100 -1 c2 -38 0 -48 -12 -48 -12
0 -16 10 -16 40 0 45 -26 58 -34 18 -3 -13 -7 -32 -9 -43 -3 -11 -5 4 -6 33
l-1 53 38 -3 c37 -3 37 -3 40 -50z m86 36 c5 -13 0 -15 -27 -10 l-32 6 33 -15
c25 -12 33 -21 30 -38 -4 -28 -64 -38 -74 -12 -4 9 -3 19 1 23 4 4 10 1 12 -5
5 -15 43 -18 43 -4 0 5 -13 14 -30 20 -28 9 -38 29 -23 44 13 13 61 7 67 -9z
m46 -74 c0 -5 -7 -10 -15 -10 -8 0 -15 5 -15 10 0 6 7 10 15 10 8 0 15 -4 15
-10z m-1001 -259 c9 -6 12 -18 8 -32 -3 -13 -2 -28 4 -35 28 -33 -39 -71 -69
-39 -16 16 -15 17 11 13 33 -6 47 10 23 28 -11 8 -13 14 -7 19 6 3 11 16 10
28 0 12 -3 16 -6 10 -2 -7 -14 -13 -25 -13 -17 0 -18 3 -8 15 14 17 38 19 59
6z m199 -53 c-3 -60 -4 -63 -31 -66 -18 -2 -29 2 -33 13 -8 21 4 34 15 16 16
-25 31 0 31 50 0 27 5 49 10 49 7 0 10 -24 8 -62z m379 56 c-3 -3 -12 -4 -19
-1 -8 3 -5 6 6 6 11 1 17 -2 13 -5z m213 -4 c0 -5 -4 -10 -9 -10 -6 0 -13 5
-16 10 -3 6 1 10 9 10 9 0 16 -4 16 -10z m110 -55 c0 -37 -4 -65 -10 -65 -6 0
-10 28 -10 65 0 37 4 65 10 65 6 0 10 -28 10 -65z m125 55 c-3 -5 -13 -10 -21
-10 -8 0 -12 5 -9 10 3 6 13 10 21 10 8 0 12 -4 9 -10z m245 -55 c0 -37 -4
-65 -10 -65 -6 0 -10 28 -10 65 0 37 4 65 10 65 6 0 10 -28 10 -65z m225 55
c3 -5 -1 -10 -9 -10 -8 0 -18 5 -21 10 -3 6 1 10 9 10 8 0 18 -4 21 -10z m145
-32 l30 -41 0 41 c0 23 5 42 10 42 6 0 10 -28 10 -65 0 -36 -4 -65 -8 -65 -4
0 -22 19 -40 42 l-32 42 0 -42 c0 -23 -4 -42 -10 -42 -6 0 -10 28 -10 65 0 36
4 65 10 65 5 0 23 -19 40 -42z m97 36 c-3 -3 -12 -4 -19 -1 -8 3 -5 6 6 6 11
1 17 -2 13 -5z m833 -9 c0 -8 8 -15 18 -15 28 0 42 -21 42 -62 0 -27 -4 -38
-15 -38 -11 0 -15 11 -15 40 0 29 -4 40 -15 40 -11 0 -15 -11 -15 -40 0 -29
-4 -40 -15 -40 -12 0 -15 14 -15 65 0 51 3 65 15 65 8 0 15 -7 15 -15z m190 0
c0 -9 9 -15 25 -15 34 0 53 -39 37 -75 -9 -20 -19 -25 -47 -25 l-35 0 0 65 c0
37 4 65 10 65 6 0 10 -7 10 -15z m107 9 c-3 -3 -12 -4 -19 -1 -8 3 -5 6 6 6
11 1 17 -2 13 -5z m47 -63 c1 -44 -2 -61 -11 -61 -8 0 -13 14 -13 39 0 22 -4
43 -10 46 -6 4 -10 -12 -10 -39 0 -34 -4 -46 -15 -46 -11 0 -15 12 -15 50 0
46 2 50 24 50 13 0 27 7 30 16 11 28 18 8 20 -55z m-1966 42 c-4 -24 -24 -27
-24 -3 0 11 6 20 14 20 7 0 12 -8 10 -17z m1580 0 c-4 -24 -24 -27 -24 -3 0
11 6 20 14 20 7 0 12 -8 10 -17z m-2746 -18 c6 -13 7 -29 2 -37 -20 -34 -64
-78 -78 -78 -16 0 -76 71 -76 90 0 35 19 47 80 47 55 1 63 -2 72 -22z m518
-11 c14 -35 14 -34 -25 -34 -19 0 -35 -5 -35 -11 0 -7 11 -9 31 -5 22 4 29 2
27 -7 -3 -6 -19 -13 -36 -15 -26 -3 -32 1 -38 22 -3 14 -3 37 0 51 9 36 62 36
76 -1z m87 -4 c3 -16 9 -30 13 -30 5 0 11 14 15 30 4 17 13 30 21 30 17 0 13
-23 -13 -72 -19 -39 -29 -35 -47 19 -19 55 -19 53 -6 53 6 0 13 -13 17 -30z
m151 -21 l3 -46 -39 -1 c-29 -1 -42 3 -47 15 -7 20 18 43 48 43 10 0 15 5 11
11 -3 6 -17 9 -30 6 -13 -2 -24 -1 -24 3 0 14 15 21 45 18 28 -3 30 -6 33 -49z
m42 1 c0 -38 -4 -50 -15 -50 -11 0 -15 12 -15 50 0 38 4 50 15 50 11 0 15 -12
15 -50z m88 31 c3 -10 -2 -12 -22 -7 -15 4 -26 2 -26 -4 0 -5 11 -13 26 -16
18 -5 24 -12 22 -28 -4 -27 -49 -34 -69 -10 -12 15 -11 16 20 9 23 -5 31 -4
27 4 -4 6 -13 11 -20 11 -8 0 -19 7 -26 15 -10 12 -10 18 0 31 16 18 62 15 68
-5z m137 7 c2 -7 6 -30 10 -51 l6 -38 -43 3 c-35 2 -43 7 -43 23 0 14 10 23
34 31 38 12 26 28 -14 18 -14 -4 -25 -2 -25 4 0 22 68 30 75 10z m232 -8 c3
-11 8 -20 12 -20 3 0 12 9 19 20 15 24 45 26 62 5 12 -14 15 -14 31 1 38 34
90 -6 74 -56 -9 -28 -51 -37 -74 -16 -16 15 -19 15 -31 1 -17 -21 -43 -19 -65
5 -19 21 -92 30 -79 9 3 -6 17 -8 30 -5 14 4 24 2 24 -4 0 -16 -26 -23 -55
-16 -21 5 -25 12 -25 45 0 41 8 49 48 50 16 1 26 -6 29 -19z m327 4 c13 -33 6
-44 -24 -44 -16 0 -30 -5 -30 -11 0 -7 11 -9 31 -5 22 4 29 2 27 -7 -6 -17
-56 -21 -74 -6 -17 14 -19 60 -2 77 17 17 65 15 72 -4z m154 -36 l3 -46 -38 1
c-31 2 -39 6 -41 25 -3 18 2 23 27 28 17 4 31 11 31 17 0 5 -13 7 -30 4 -16
-4 -30 -3 -30 2 0 15 15 22 45 19 28 -3 30 -6 33 -50z m222 2 c0 -38 -4 -50
-15 -50 -11 0 -15 12 -15 50 0 38 4 50 15 50 11 0 15 -12 15 -50z m88 38 c9
-9 15 -9 24 0 18 18 56 14 68 -7 17 -33 12 -41 -26 -41 -23 0 -33 -4 -28 -11
3 -6 17 -8 31 -4 18 4 24 2 21 -7 -6 -18 -46 -22 -64 -7 -11 9 -18 9 -26 1
-21 -21 -58 -14 -70 13 -23 51 32 101 70 63z m342 -39 c0 -27 -4 -49 -10 -49
-5 0 -10 18 -10 40 0 29 -4 40 -15 40 -11 0 -15 -11 -15 -40 0 -50 -18 -53
-22 -3 -4 52 -26 54 -34 4 -9 -57 -24 -51 -24 9 l0 49 65 0 65 -1 0 -49z m94
35 c3 -9 6 -31 6 -50 0 -35 0 -35 -42 -32 -35 2 -43 7 -43 23 0 14 10 23 33
30 44 13 41 29 -5 20 -33 -6 -35 -5 -24 9 17 21 67 21 75 0z m46 -34 c0 -27
-4 -50 -10 -50 -5 0 -10 23 -10 50 0 28 5 50 10 50 6 0 10 -22 10 -50z m91 34
c11 -14 9 -15 -24 -9 -47 9 -48 0 -2 -19 19 -8 35 -19 35 -24 0 -30 -68 -42
-78 -14 -3 9 3 11 22 6 16 -4 26 -2 26 5 0 6 -9 11 -20 11 -23 0 -35 22 -26
45 7 20 50 19 67 -1z m89 -49 c0 -50 -4 -67 -15 -72 -9 -3 -19 -2 -23 2 -4 4
-1 10 6 12 8 3 12 26 12 64 0 33 4 59 10 59 6 0 10 -28 10 -65z m238 14 l3
-46 -39 -1 c-29 -1 -42 3 -47 15 -6 18 18 43 42 43 7 0 13 5 13 11 0 7 -10 9
-25 7 -14 -3 -25 -2 -25 2 0 14 15 21 45 18 28 -3 30 -6 33 -49z m274 34 c29
-26 22 -43 -18 -43 -23 0 -33 -4 -28 -11 3 -6 17 -8 31 -4 18 4 24 2 21 -7 -7
-20 -48 -21 -69 -2 -23 21 -24 33 -3 62 18 26 41 28 66 5z m-2942 -68 c0 -8
-7 -15 -15 -15 -8 0 -15 7 -15 15 0 8 7 15 15 15 8 0 15 -7 15 -15z m1908 -17
c-4 -30 -23 -33 -24 -3 -1 16 3 25 13 25 9 0 13 -8 11 -22z m-1983 -79 c11
-17 -1 -21 -15 -4 -8 9 -8 15 -2 15 6 0 14 -5 17 -11z m199 -11 c14 -23 -2
-37 -18 -15 -32 42 -81 -7 -58 -58 13 -28 49 -34 58 -10 6 15 34 22 34 8 0
-17 -36 -43 -60 -43 -56 0 -84 77 -45 120 23 25 73 24 89 -2z m660 6 c9 -8 16
-20 16 -25 0 -15 -22 -10 -35 8 -13 17 -45 12 -45 -7 0 -11 7 -14 53 -24 20
-5 27 -12 27 -29 0 -31 -18 -47 -51 -47 -27 0 -59 22 -59 41 0 15 27 10 34 -6
8 -22 46 -19 46 4 0 12 -11 21 -32 27 -24 7 -34 17 -36 33 -6 40 51 57 82 25z
m296 -39 l17 -50 19 53 c27 75 44 68 44 -18 0 -72 -19 -102 -21 -32 l-1 37
-15 -37 c-19 -46 -39 -49 -48 -8 -10 43 -25 47 -25 6 0 -20 -4 -36 -10 -36 -6
0 -10 30 -10 71 0 60 2 70 17 67 9 -2 23 -24 33 -53z m542 8 c10 -9 18 -23 18
-32 0 -28 -30 -61 -55 -61 -24 0 -55 33 -55 59 0 22 30 51 53 51 11 0 29 -7
39 -17z m-1677 -5 c2 -7 6 -30 10 -51 l6 -38 -43 3 c-36 2 -44 7 -46 26 -3 17
4 26 30 37 l33 14 -35 1 c-26 0 -31 3 -20 10 21 14 60 12 65 -2z m280 0 c2 -7
6 -29 9 -49 l6 -37 -40 0 c-29 -1 -43 4 -47 15 -8 21 9 46 38 54 21 6 20 7 -9
8 -19 1 -31 5 -27 11 9 14 65 12 70 -2z m105 -37 c0 -70 -6 -81 -46 -81 -43 0
-45 20 -1 21 30 2 31 2 4 6 -35 5 -54 46 -38 80 8 18 19 23 46 23 l35 0 0 -49z
m88 37 c14 -14 16 -88 2 -88 -5 0 -10 18 -10 40 0 33 -3 40 -20 40 -17 0 -20
-7 -20 -40 0 -29 -4 -40 -15 -40 -11 0 -15 12 -15 50 0 50 0 50 33 50 18 0 38
-5 45 -12z m104 -5 c27 -24 22 -33 -17 -33 -19 0 -35 -4 -35 -9 0 -17 21 -23
36 -10 19 16 30 4 14 -16 -25 -30 -80 -7 -80 35 0 23 26 50 47 50 9 0 25 -7
35 -17z m93 7 c4 -6 -8 -10 -27 -11 l-33 -1 33 -11 c28 -8 33 -14 30 -36 -2
-20 -9 -27 -29 -29 -14 -2 -31 4 -39 13 -15 19 -5 34 12 17 13 -13 38 -16 38
-4 0 4 -14 15 -31 25 -26 14 -29 20 -19 32 14 17 56 20 65 5z m217 -27 c2 -27
8 -39 21 -41 14 -3 17 4 17 37 0 23 5 41 10 41 6 0 10 -22 10 -50 l0 -50 -34
0 c-38 0 -46 12 -46 66 0 46 18 43 22 -3z m138 27 c0 -5 -6 -10 -14 -10 -16 0
-26 -21 -26 -56 0 -13 -4 -24 -10 -24 -5 0 -10 23 -10 50 0 49 1 50 30 50 17
0 30 -4 30 -10z m282 -7 c27 -24 22 -33 -17 -33 -34 0 -46 -12 -24 -26 6 -3
16 -1 22 5 6 6 17 11 24 11 11 0 11 -5 3 -20 -13 -24 -47 -26 -72 -3 -22 20
-23 41 -1 65 20 22 41 23 65 1z m78 7 c0 -5 -7 -10 -15 -10 -11 0 -15 -11 -15
-40 0 -22 -4 -40 -10 -40 -5 0 -10 23 -10 50 0 47 2 50 25 50 14 0 25 -4 25
-10z m-650 -40 c0 -5 -11 -10 -25 -10 -14 0 -25 5 -25 10 0 6 11 10 25 10 14
0 25 -4 25 -10z m340 0 c0 -5 -11 -10 -25 -10 -14 0 -25 5 -25 10 0 6 11 10
25 10 14 0 25 -4 25 -10z m340 -40 c0 -5 -7 -10 -15 -10 -8 0 -15 5 -15 10 0
6 7 10 15 10 8 0 15 -4 15 -10z m-1420 -288 c0 -21 5 -43 12 -50 9 -9 9 -12 0
-12 -7 0 -12 -7 -12 -15 0 -8 -4 -15 -10 -15 -5 0 -10 6 -10 14 0 9 -12 16
-30 18 l-29 3 29 48 c17 26 35 47 40 47 6 0 10 -17 10 -38z m198 -24 c-3 -60
-4 -63 -31 -66 -18 -2 -29 2 -33 13 -8 21 4 34 15 16 16 -25 31 0 31 50 0 27
5 49 10 49 7 0 10 -24 8 -62z m332 -3 l0 -65 -33 0 c-26 0 -37 6 -47 25 -19
35 0 75 35 75 16 0 25 6 25 15 0 8 5 15 10 15 6 0 10 -28 10 -65z m393 58
c-27 -10 -11 -23 30 -24 41 0 41 0 20 -16 -16 -11 -23 -26 -23 -49 0 -19 -4
-34 -10 -34 -5 0 -10 18 -10 40 0 22 -4 40 -10 40 -5 0 -10 -18 -10 -40 0 -28
-4 -40 -14 -40 -10 0 -15 15 -18 51 -4 60 5 79 35 78 12 0 16 -3 10 -6z m112
-3 c3 -5 2 -10 -4 -10 -5 0 -13 5 -16 10 -3 6 -2 10 4 10 5 0 13 -4 16 -10z
m-795 -14 c0 -8 -4 -17 -9 -21 -6 -3 -9 4 -8 15 1 23 17 28 17 6z m1390 -6
c11 -11 20 -29 20 -40 0 -23 -33 -60 -55 -60 -22 0 -55 37 -55 60 0 23 33 60
55 60 8 0 24 -9 35 -20z m-1848 -16 c9 -20 6 -30 -23 -69 -42 -55 -63 -55
-103 2 -25 36 -28 46 -19 66 10 21 18 24 73 24 55 1 62 -1 72 -23z m556 -35
l3 -46 -38 -1 c-57 -2 -73 32 -23 49 36 13 41 34 5 25 -14 -4 -25 -3 -25 2 0
16 14 23 45 20 28 -3 30 -6 33 -49z m42 1 c0 -27 -4 -50 -10 -50 -5 0 -10 23
-10 50 0 28 5 50 10 50 6 0 10 -22 10 -50z m238 38 c23 -23 13 -38 -23 -38
-19 0 -35 -5 -35 -10 0 -17 29 -23 45 -10 19 16 28 9 19 -14 -7 -19 -54 -22
-72 -4 -27 27 -5 88 31 88 13 0 28 -5 35 -12z m52 -29 c0 -33 3 -40 18 -37 11
2 19 16 23 43 6 39 6 39 8 -12 1 -52 0 -53 -27 -53 -38 0 -52 17 -52 62 0 27
4 38 15 38 11 0 15 -11 15 -41z m105 24 c6 -17 7 -17 16 0 16 27 30 20 17 -9
-9 -20 -9 -30 1 -46 16 -25 4 -39 -14 -15 -11 15 -14 15 -25 2 -7 -8 -19 -15
-26 -15 -12 0 -11 5 3 26 13 21 14 30 5 45 -15 24 -15 29 2 29 8 0 17 -8 21
-17z m287 0 c27 -24 22 -33 -17 -33 -34 0 -46 -12 -24 -26 6 -3 16 -1 22 5 6
6 17 11 24 11 11 0 11 -5 3 -20 -13 -24 -47 -26 -72 -3 -22 20 -23 32 -2 61
18 26 41 28 66 5z m71 0 c-16 -11 -23 -26 -23 -49 0 -19 -4 -34 -10 -34 -5 0
-10 23 -10 50 0 50 0 50 33 49 32 0 32 0 10 -16z m89 0 c27 -24 22 -33 -17
-33 -34 0 -46 -12 -24 -26 6 -3 16 -1 22 5 14 14 67 15 67 1 0 -5 7 -10 15
-10 25 0 17 17 -11 24 -19 5 -25 12 -22 29 2 17 10 22 32 22 16 0 31 -6 34
-14 3 -10 -2 -12 -22 -7 -15 4 -26 2 -26 -4 0 -5 6 -10 13 -10 7 0 22 -6 32
-14 16 -12 17 -16 6 -30 -18 -21 -57 -20 -71 2 -10 16 -10 16 -20 0 -14 -23
-48 -23 -72 -1 -22 20 -23 32 -2 61 18 26 41 28 66 5z m-1162 -68 c0 -8 -4
-15 -10 -15 -5 0 -10 7 -10 15 0 8 5 15 10 15 6 0 10 -7 10 -15z m1310 -5 c0
-5 -7 -10 -15 -10 -8 0 -15 5 -15 10 0 6 7 10 15 10 8 0 15 -4 15 -10z m-1360
-270 c0 -5 -9 -10 -20 -10 -26 0 -26 -16 0 -23 28 -7 38 -56 15 -74 -25 -17
-50 -17 -65 2 -10 12 -10 15 3 15 9 0 19 -5 22 -10 10 -16 25 -1 25 25 0 22
-3 24 -30 19 -34 -7 -34 -8 -19 35 9 25 16 31 40 31 16 0 29 -4 29 -10z m180
-111 l35 -6 -42 -2 -43 -1 2 68 1 67 6 -60 c6 -59 6 -60 41 -66z m1390 56 c0
-51 -3 -65 -15 -65 -12 0 -15 14 -15 65 0 51 3 65 15 65 12 0 15 -14 15 -65z
m27 -32 c-2 -21 -4 -6 -4 32 0 39 2 55 4 38 2 -18 2 -50 0 -70z m273 87 c0 -5
-9 -10 -20 -10 -18 0 -20 -7 -20 -55 0 -30 -4 -55 -10 -55 -5 0 -10 25 -10 55
0 52 -1 55 -25 55 -14 0 -25 5 -25 10 0 6 25 10 55 10 30 0 55 -4 55 -10z m33
-10 c3 -14 14 -20 31 -20 24 0 26 -3 26 -45 0 -54 -17 -60 -22 -8 -4 52 -26
54 -34 4 -10 -63 -24 -49 -24 24 0 63 12 86 23 45z m637 10 c0 -5 -7 -10 -15
-10 -8 0 -15 5 -15 10 0 6 7 10 15 10 8 0 15 -4 15 -10z m30 -55 c0 -37 -4
-65 -10 -65 -6 0 -10 28 -10 65 0 37 4 65 10 65 6 0 10 -28 10 -65z m-1440 41
c0 -8 -4 -18 -10 -21 -5 -3 -10 3 -10 14 0 12 5 21 10 21 6 0 10 -6 10 -14z
m-1360 -22 c7 -7 9 -21 6 -31 -9 -26 -63 -83 -80 -83 -19 0 -76 66 -76 88 0
10 5 23 11 29 16 16 126 14 139 -3z m528 -21 c3 -20 -1 -23 -27 -23 -31 0 -41
-13 -21 -25 6 -4 18 -1 26 6 16 13 30 6 19 -10 -3 -6 -20 -11 -36 -11 -33 0
-49 26 -41 67 4 21 9 24 41 21 29 -2 37 -8 39 -25z m150 -15 c-3 -39 -6 -43
-30 -46 -20 -2 -28 -9 -28 -23 0 -10 -4 -19 -10 -19 -6 0 -10 28 -10 65 l0 65
41 0 40 0 -3 -42z m60 35 c-13 -3 -18 -15 -18 -44 0 -28 -4 -39 -15 -39 -11 0
-15 12 -15 45 0 44 0 45 33 44 17 -1 24 -3 15 -6z m100 -20 c3 -20 -1 -23 -32
-23 -20 0 -36 -5 -36 -10 0 -17 29 -23 45 -10 17 14 31 8 20 -9 -9 -16 -61
-13 -75 4 -7 9 -9 26 -5 45 6 29 10 31 43 28 30 -2 38 -8 40 -25z m150 -20 c2
-34 0 -43 -12 -43 -12 0 -16 11 -16 41 0 52 -24 48 -28 -4 -4 -50 -22 -47 -22
3 0 29 -4 40 -15 40 -10 0 -17 -14 -21 -40 -9 -54 -24 -51 -24 5 l0 46 68 -3
67 -3 3 -42z m29 -20 c-2 -16 -4 -5 -4 22 0 28 2 40 4 28 2 -13 2 -35 0 -50z
m107 51 c11 -29 6 -34 -30 -34 -32 0 -35 -2 -24 -15 9 -11 16 -13 24 -5 5 5
16 10 24 10 12 0 12 -3 2 -15 -15 -18 -51 -20 -68 -3 -13 13 -16 60 -5 71 13
14 71 7 77 -9z m59 9 c-8 -2 -13 -22 -13 -44 0 -28 -4 -39 -15 -39 -11 0 -15
12 -15 45 0 43 1 45 28 44 15 0 21 -3 15 -6z m143 -4 c4 -8 -3 -9 -25 -4 -40
8 -41 -7 -1 -22 36 -14 39 -40 5 -49 -30 -7 -55 1 -55 18 0 9 3 9 12 0 14 -14
38 -16 38 -4 0 5 -11 14 -25 20 -15 7 -25 20 -25 32 0 16 7 20 34 20 19 0 38
-5 42 -11z m134 -32 c0 -43 -1 -44 -32 -45 -61 -2 -74 41 -17 53 16 4 26 11
23 17 -3 5 -17 7 -30 4 -14 -4 -24 -2 -24 4 0 5 18 10 40 10 l40 0 0 -43z
m106 18 c9 -36 -2 -55 -36 -61 -21 -5 -30 -12 -30 -25 0 -11 -4 -19 -10 -19
-6 0 -10 28 -10 65 l0 65 40 0 c34 0 41 -4 46 -25z m94 8 c1 -17 1 -17 11 0
13 22 74 24 83 1 11 -29 6 -34 -31 -34 -35 0 -36 -1 -20 -17 13 -13 20 -14 29
-5 17 17 33 15 18 -3 -16 -20 -54 -19 -71 1 -11 14 -13 14 -21 0 -5 -9 -20
-16 -33 -16 -18 0 -25 -5 -25 -20 0 -11 -4 -20 -10 -20 -6 0 -10 28 -10 65 l0
65 40 0 c31 0 40 -4 40 -17z m278 -10 c3 -20 -1 -23 -27 -23 -32 0 -41 -13
-19 -26 6 -4 14 -2 16 4 2 7 11 12 19 12 13 0 13 -3 3 -15 -15 -18 -51 -20
-68 -3 -13 13 -16 60 -5 72 4 4 23 6 43 4 28 -2 36 -8 38 -25z m358 2 c9 -35
-1 -53 -32 -61 -33 -8 -58 6 -62 35 -5 32 15 51 54 51 28 0 35 -5 40 -25z
m144 -20 c0 -54 -17 -60 -22 -8 -4 52 -28 56 -28 4 0 -30 -4 -41 -15 -41 -11
0 -15 11 -15 40 0 29 -4 40 -15 40 -11 0 -15 -11 -15 -40 0 -22 -4 -40 -10
-40 -5 0 -10 20 -10 45 l0 45 65 0 65 0 0 -45z m100 1 l0 -44 -42 2 c-55 1
-66 31 -19 49 37 14 42 32 6 23 -14 -4 -25 -2 -25 4 0 5 18 10 40 10 l40 0 0
-44z m90 33 c0 -7 -11 -8 -30 -4 -17 4 -30 2 -30 -3 0 -5 14 -12 31 -16 25 -5
30 -10 27 -28 -2 -17 -11 -24 -32 -26 -16 -2 -33 1 -39 7 -16 16 0 26 18 11
12 -10 19 -10 27 -2 8 8 4 13 -15 17 -26 7 -42 29 -31 46 8 13 74 11 74 -2z
m140 -34 c0 -33 -4 -45 -15 -45 -11 0 -15 12 -15 45 0 33 4 45 15 45 11 0 15
-12 15 -45z m188 -2 l3 -43 -41 0 c-27 0 -43 5 -46 15 -8 20 13 45 37 45 11 0
19 5 19 11 0 7 -11 9 -30 6 -18 -4 -30 -2 -30 4 0 6 18 9 43 7 42 -3 42 -3 45
-45z m-2678 -33 c0 -5 -4 -10 -10 -10 -5 0 -10 5 -10 10 0 6 5 10 10 10 6 0
10 -4 10 -10z m2388 -17 c-4 -24 -24 -27 -24 -3 0 11 6 20 14 20 7 0 12 -8 10
-17z m-2184 -106 c8 -6 8 -10 -1 -14 -15 -6 -18 -63 -3 -63 6 0 10 -4 10 -10
0 -5 -9 -10 -19 -10 -15 0 -20 9 -23 48 -5 52 11 114 20 77 2 -11 9 -24 16
-28z m987 13 c14 -8 19 -21 19 -50 0 -40 -18 -60 -54 -60 -22 0 -56 36 -56 60
0 24 34 60 56 60 8 0 24 -5 35 -10z m-1241 -75 c0 -37 -4 -65 -10 -65 -5 0
-10 7 -10 15 0 8 -8 15 -18 15 -25 0 -42 20 -42 50 0 34 17 50 52 50 28 0 28
0 28 -65z m50 24 c0 -52 24 -48 28 4 5 55 22 45 22 -13 0 -48 -1 -50 -28 -50
-38 0 -52 17 -52 62 0 27 4 38 15 38 11 0 15 -11 15 -41z m148 29 c7 -7 12
-29 12 -51 l0 -38 -42 3 c-38 3 -43 6 -43 28 0 20 6 26 28 28 15 2 27 8 27 14
0 6 -12 8 -30 5 -23 -5 -28 -3 -23 8 6 18 54 20 71 3z m146 -4 c30 -29 9 -84
-31 -84 -21 0 -53 29 -53 48 0 22 30 52 51 52 10 0 25 -7 33 -16z m135 -21
l-33 -38 25 -3 c47 -7 44 -22 -4 -22 -26 0 -47 3 -47 7 0 3 11 21 26 40 l25
33 -40 0 -41 0 0 -40 c0 -22 -4 -40 -10 -40 -5 0 -10 23 -10 50 l0 50 71 0 71
0 -33 -37z m119 10 c14 -23 14 -23 -27 -23 -22 0 -41 -5 -41 -10 0 -17 29 -23
45 -10 20 17 32 5 15 -15 -36 -44 -96 7 -72 61 15 32 57 30 80 -3z m140 15 c7
-7 12 -29 12 -51 l0 -38 -42 3 c-38 3 -43 6 -43 28 0 20 6 26 28 28 15 2 27 8
27 13 0 7 -12 8 -32 3 -29 -6 -31 -5 -19 10 16 19 52 21 69 4z m110 -40 c2
-38 0 -48 -12 -48 -12 0 -16 10 -16 40 0 29 -4 40 -15 40 -11 0 -15 -11 -15
-40 0 -22 -4 -40 -10 -40 -5 0 -10 23 -10 51 l0 50 38 -3 c37 -3 37 -3 40 -50z
m90 33 c3 -10 -3 -11 -28 -6 -23 5 -30 4 -26 -4 4 -6 18 -11 32 -11 22 0 25
-4 22 -27 -2 -23 -8 -29 -36 -31 -32 -3 -55 19 -37 36 4 4 10 1 12 -5 5 -15
43 -18 43 -4 0 5 -13 14 -30 20 -28 9 -38 29 -23 45 12 12 66 2 71 -13z m42
-71 c0 -5 -7 -10 -15 -10 -8 0 -15 5 -15 10 0 6 7 10 15 10 8 0 15 -4 15 -10z
m-982 -259 c3 -10 -1 -12 -17 -8 -11 3 -24 1 -27 -4 -3 -5 4 -9 15 -9 21 0 41
-27 41 -55 0 -23 -43 -40 -69 -26 -44 24 -16 126 33 119 11 -2 22 -9 24 -17z
m182 -102 l35 -6 -42 -2 -43 -1 2 68 1 67 6 -60 c6 -59 6 -60 41 -66z m750 56
l0 -65 -34 0 c-40 0 -59 19 -54 57 2 22 9 29 31 31 19 2 27 9 27 23 0 10 7 19
15 19 12 0 15 -14 15 -65z m610 0 c0 -37 -4 -65 -10 -65 -6 0 -10 28 -10 65 0
37 4 65 10 65 6 0 10 -28 10 -65z m40 0 c0 -37 -4 -65 -10 -65 -6 0 -10 28
-10 65 0 37 4 65 10 65 6 0 10 -28 10 -65z m194 38 l23 -27 18 27 c29 45 39
30 11 -17 -14 -25 -26 -54 -26 -65 0 -12 -4 -21 -10 -21 -5 0 -10 10 -10 23 0
12 -11 41 -25 65 -27 47 -16 56 19 15z m547 10 c0 -10 1 -39 2 -66 3 -63 -20
-63 -25 1 -5 53 0 82 13 82 5 0 9 -8 10 -17z m89 7 c0 -5 -4 -10 -10 -10 -5 0
-10 5 -10 10 0 6 5 10 10 10 6 0 10 -4 10 -10z m40 -55 c0 -37 -4 -65 -10 -65
-6 0 -10 28 -10 65 0 37 4 65 10 65 6 0 10 -28 10 -65z m555 49 c-17 -13 -18
-16 -5 -24 10 -7 11 -10 3 -10 -8 0 -13 -15 -13 -40 0 -55 -17 -51 -22 5 -4
60 6 85 34 85 23 -1 23 -1 3 -16z m-1905 -14 c0 -11 -4 -20 -8 -20 -4 0 -8 9
-9 20 -1 11 2 20 8 20 5 0 9 -9 9 -20z m-1330 -16 c7 -7 9 -21 6 -31 -9 -26
-63 -83 -80 -83 -19 0 -76 66 -76 88 0 10 5 23 11 29 16 16 126 14 139 -3z
m528 -21 c3 -20 -1 -23 -27 -23 -31 0 -41 -13 -21 -25 6 -4 18 -1 26 6 16 13
30 6 19 -10 -3 -6 -20 -11 -36 -11 -33 0 -49 26 -41 67 4 21 9 24 41 21 29 -2
37 -8 39 -25z m147 16 c5 -7 -5 -8 -32 -3 -41 7 -37 -4 9 -24 26 -11 28 -9 34
14 6 22 11 25 43 22 29 -2 37 -8 39 -25 3 -20 -1 -23 -34 -23 -36 0 -37 -1
-22 -17 14 -14 20 -14 33 -3 17 14 31 8 20 -9 -8 -13 -62 -15 -69 -2 -4 5 -18
5 -35 -2 -31 -11 -61 -4 -61 15 0 9 3 9 12 0 14 -14 38 -16 38 -4 0 5 -11 14
-25 20 -15 7 -25 20 -25 32 0 16 7 20 34 20 19 0 38 -5 41 -11z m185 0 c0 -8
4 -8 14 0 8 7 30 11 48 9 28 -3 34 -7 36 -31 2 -16 -2 -35 -9 -43 -14 -17 -51
-18 -67 -2 -9 9 -15 9 -24 0 -7 -7 -21 -12 -33 -12 -12 0 -26 5 -33 12 -13 13
-16 60 -5 71 11 12 73 8 73 -4z m198 -36 c2 -34 0 -43 -12 -43 -12 0 -16 11
-16 41 0 52 -24 48 -28 -4 -2 -24 -8 -37 -18 -37 -10 0 -14 13 -14 46 l0 45
43 -3 c42 -3 42 -3 45 -45z m238 36 c4 -8 -3 -9 -25 -4 -39 8 -40 0 -1 -20 37
-19 39 -42 5 -51 -28 -7 -55 0 -55 16 0 13 17 13 25 0 8 -13 25 -13 25 0 0 6
-11 15 -25 20 -15 6 -25 17 -25 30 0 16 7 20 34 20 19 0 38 -5 42 -11z m134
-35 l0 -45 -42 3 c-35 2 -43 7 -43 23 0 13 10 22 33 29 41 11 43 31 2 23 -17
-4 -30 -2 -30 3 0 6 18 10 40 10 l40 0 0 -46z m100 26 c16 -31 3 -60 -31 -67
-20 -4 -29 -12 -29 -24 0 -11 -4 -19 -10 -19 -6 0 -10 28 -10 65 l0 65 35 0
c24 0 37 -6 45 -20z m105 3 c6 -17 7 -17 16 0 11 20 59 23 77 5 23 -23 13 -37
-28 -40 -32 -2 -38 -6 -30 -18 8 -12 13 -13 30 -2 28 17 46 16 30 -3 -14 -17
-61 -20 -75 -6 -16 15 -85 -11 -85 -31 0 -10 -4 -18 -10 -18 -6 0 -10 28 -10
65 l0 65 39 0 c28 0 41 -5 46 -17z m273 -10 c3 -20 -1 -23 -32 -23 -20 0 -36
-5 -36 -10 0 -16 30 -24 43 -11 16 16 27 14 20 -5 -7 -20 -62 -15 -76 7 -5 9
-7 28 -3 43 6 24 11 27 44 24 30 -2 38 -7 40 -25z m242 -2 c0 -16 3 -36 6 -44
4 -12 -4 -15 -38 -13 -36 1 -43 4 -43 21 0 14 10 23 33 30 43 12 41 29 -3 21
-22 -4 -35 -3 -35 4 0 5 18 10 40 10 38 0 40 -2 40 -29z m104 7 c10 -40 7 -68
-9 -68 -11 0 -15 11 -15 40 0 29 -4 40 -15 40 -11 0 -15 -11 -15 -40 0 -29 -4
-40 -15 -40 -11 0 -15 12 -15 45 l0 45 39 0 c32 0 40 -4 45 -22z m104 -25 c2
-34 0 -43 -12 -43 -12 0 -16 11 -16 41 0 52 -24 48 -28 -4 -2 -24 -8 -37 -18
-37 -10 0 -14 13 -14 46 l0 45 43 -3 c42 -3 42 -3 45 -45z m146 31 c11 -29 6
-34 -30 -34 -32 0 -35 -2 -24 -15 9 -11 16 -13 24 -5 5 5 16 10 24 10 12 0 12
-3 2 -15 -15 -18 -51 -20 -68 -3 -13 13 -16 60 -5 71 13 14 71 7 77 -9z m136
-29 c0 -25 -4 -45 -10 -45 -5 0 -10 20 -10 45 0 25 5 45 10 45 6 0 10 -20 10
-45z m190 1 l0 -44 -42 2 c-55 1 -66 31 -19 47 37 13 42 34 6 25 -14 -4 -25
-2 -25 4 0 5 18 10 40 10 l40 0 0 -44z m148 -3 c2 -26 -1 -43 -7 -43 -6 0 -11
18 -11 41 0 33 -3 40 -17 37 -13 -2 -19 -14 -21 -41 -2 -24 -8 -37 -18 -37
-10 0 -14 13 -14 46 l0 45 43 -3 c42 -3 42 -3 45 -45z m102 28 c15 -29 13 -31
-25 -31 -34 0 -46 -12 -24 -26 6 -3 16 -1 22 5 14 14 27 14 27 1 0 -16 -46
-23 -69 -10 -21 11 -26 34 -15 64 9 24 71 21 84 -3z m42 -18 c2 -21 8 -38 13
-38 6 0 11 17 13 38 2 24 8 37 18 37 10 0 14 -13 14 -46 l0 -45 -37 3 c-37 3
-38 4 -41 46 -2 23 1 42 7 42 5 0 11 -17 13 -37z m-2842 -43 c0 -5 -4 -10 -10
-10 -5 0 -10 5 -10 10 0 6 5 10 10 10 6 0 10 -4 10 -10z m460 -130 c11 -11 20
-27 20 -35 0 -22 -37 -55 -60 -55 -23 0 -60 33 -60 55 0 22 37 55 60 55 11 0
29 -9 40 -20z m-515 -2 c2 -7 6 -30 10 -51 l6 -38 -43 3 c-38 3 -43 6 -43 28
0 20 6 26 28 28 15 2 27 8 27 13 0 7 -12 8 -30 4 -18 -4 -30 -2 -30 3 0 22 68
30 75 10z m105 -14 c15 -38 12 -74 -5 -74 -11 0 -15 11 -15 40 0 29 -4 40 -15
40 -11 0 -15 -11 -15 -40 0 -29 -4 -40 -15 -40 -11 0 -15 12 -15 50 l0 50 35
0 c29 0 37 -5 45 -26z m91 10 c12 -15 10 -16 -21 -9 -24 5 -32 4 -25 -3 6 -6
19 -12 30 -14 24 -4 33 -37 13 -49 -22 -14 -55 -10 -62 7 -4 9 -3 20 0 23 4 3
9 0 11 -6 5 -14 33 -18 33 -5 0 5 -11 14 -25 20 -24 11 -32 31 -18 45 12 13
51 7 64 -9z m49 -74 c0 -5 -4 -10 -10 -10 -5 0 -10 5 -10 10 0 6 5 10 10 10 6
0 10 -4 10 -10z m-240 -255 c0 -3 -6 -16 -14 -28 -8 -12 -17 -39 -20 -59 -4
-21 -11 -38 -16 -38 -8 0 5 56 25 102 5 13 0 17 -22 21 -23 3 -22 4 10 6 20 0
37 -1 37 -4z m170 -43 c8 -23 17 -42 21 -42 4 0 12 20 18 45 7 28 17 45 26 45
12 0 15 -14 15 -65 0 -51 -3 -65 -15 -65 -9 0 -15 10 -16 28 l-1 27 -7 -25
c-12 -42 -36 -36 -52 12 l-14 43 -6 -45 c-5 -41 -6 -38 -7 23 -2 79 14 87 38
19z m1011 36 c6 -87 3 -118 -11 -116 -18 4 -32 85 -18 111 10 20 28 23 29 5z
m143 -21 c8 -6 7 -10 -1 -14 -15 -6 -18 -63 -3 -63 6 0 10 -4 10 -10 0 -5 -9
-10 -20 -10 -17 0 -20 7 -20 39 0 22 -4 43 -10 46 -6 4 -10 -12 -10 -39 0 -25
-4 -46 -10 -46 -5 0 -10 23 -10 50 0 42 3 50 19 50 10 0 22 8 26 18 6 14 8 15
13 2 3 -8 10 -19 16 -23z m136 -32 c0 -37 -4 -65 -10 -65 -6 0 -10 28 -10 65
0 37 4 65 10 65 6 0 10 -28 10 -65z m430 50 c0 -8 5 -15 12 -15 9 0 9 -3 0
-12 -16 -16 -15 -61 1 -77 10 -10 7 -12 -13 -9 -21 3 -26 10 -31 48 -6 45 3
80 21 80 6 0 10 -7 10 -15z m97 9 c-3 -3 -12 -4 -19 -1 -8 3 -5 6 6 6 11 1 17
-2 13 -5z m33 -59 c0 -37 -4 -65 -10 -65 -6 0 -10 28 -10 65 0 37 4 65 10 65
6 0 10 -28 10 -65z m291 53 c6 -87 3 -118 -11 -116 -18 4 -32 85 -18 111 10
20 28 23 29 5z m139 -53 c0 -51 -3 -65 -15 -65 -11 0 -15 11 -15 40 0 22 -4
40 -10 40 -5 0 -10 -18 -10 -40 0 -56 -17 -50 -22 8 -6 61 5 82 42 82 l30 0 0
-65z m431 53 c5 -79 3 -118 -8 -118 -8 0 -13 14 -13 38 0 21 -5 43 -12 50 -9
9 -9 12 0 12 7 0 12 7 12 15 0 18 20 20 21 3z m-3109 -33 c6 -13 7 -29 2 -37
-20 -34 -64 -78 -78 -78 -16 0 -76 71 -76 90 0 35 19 47 80 47 55 1 63 -2 72
-22z m572 -1 c30 -29 9 -84 -31 -84 -21 0 -53 29 -53 48 0 22 30 52 51 52 10
0 25 -7 33 -16z m104 -36 c2 -29 -1 -48 -7 -48 -6 0 -11 18 -11 40 0 33 -3 40
-20 40 -17 0 -20 -7 -20 -40 0 -22 -4 -40 -10 -40 -5 0 -10 23 -10 51 l0 50
38 -3 c37 -3 37 -3 40 -50z m150 24 c16 -26 19 -27 51 -16 38 12 26 30 -14 20
-19 -5 -23 -3 -18 9 4 11 16 15 42 13 35 -3 36 -4 39 -49 l3 -46 -40 -1 c-27
-1 -43 3 -49 14 -8 14 -10 14 -21 0 -8 -9 -22 -16 -32 -16 -12 0 -19 -7 -19
-20 0 -11 -4 -20 -10 -20 -6 0 -10 30 -10 70 l0 70 30 0 c22 0 35 -7 48 -28z
m194 3 c16 -36 -3 -75 -37 -75 -18 0 -25 -5 -25 -20 0 -11 -4 -20 -10 -20 -6
0 -10 30 -10 70 l0 70 35 0 c28 0 38 -5 47 -25z m92 13 c3 -7 7 -30 10 -51 l5
-38 -42 3 c-54 4 -64 33 -18 51 40 15 40 31 1 22 -18 -4 -30 -2 -30 3 0 22 68
30 74 10z m152 -5 c23 -30 16 -43 -22 -43 -23 0 -33 -4 -28 -11 3 -6 17 -8 31
-4 18 4 24 2 21 -7 -7 -20 -48 -21 -69 -2 -23 21 -24 33 -3 62 18 26 52 29 70
5z m92 -1 c3 -9 -3 -11 -22 -6 -16 4 -26 2 -26 -5 0 -6 6 -11 14 -11 8 0 22
-7 31 -16 12 -12 13 -19 4 -30 -16 -19 -54 -18 -70 2 -12 15 -10 16 19 10 38
-9 43 0 7 14 -24 9 -34 38 -18 54 11 11 56 2 61 -12z m286 6 c3 -7 7 -29 9
-49 l5 -37 -39 0 c-26 -1 -42 4 -46 14 -7 19 15 44 38 44 11 0 19 5 19 11 0 7
-11 9 -30 6 -28 -6 -38 1 -23 16 11 12 63 8 67 -5z m86 -38 c0 -27 -4 -50 -10
-50 -5 0 -10 23 -10 50 0 28 5 50 10 50 6 0 10 -22 10 -50z m94 34 c13 -34 7
-44 -30 -44 -23 0 -33 -4 -28 -11 3 -6 19 -9 35 -5 22 4 27 2 22 -9 -9 -25
-62 -19 -74 8 -17 37 4 77 40 77 17 0 31 -6 35 -16z m96 -10 c13 -32 13 -74 1
-74 -6 0 -11 17 -13 37 -2 27 -8 39 -20 41 -15 3 -18 -4 -18 -37 0 -30 -4 -41
-15 -41 -11 0 -15 12 -15 50 l0 50 35 0 c29 0 37 -5 45 -26z m150 7 c17 -33
12 -41 -26 -41 -23 0 -33 -4 -28 -11 3 -6 17 -9 31 -6 15 3 22 0 20 -7 -5 -16
-46 -20 -63 -6 -17 15 -19 61 -2 78 18 18 56 14 68 -7z m150 -31 c0 -38 -4
-50 -15 -50 -11 0 -15 12 -15 50 0 38 4 50 15 50 11 0 15 -12 15 -50z m180 24
c14 -35 14 -34 -25 -34 -19 0 -35 -5 -35 -11 0 -7 11 -9 30 -5 17 3 30 1 30
-5 0 -15 -27 -22 -55 -15 -21 5 -25 12 -25 45 0 40 8 49 48 50 15 1 26 -7 32
-25z m88 8 c3 -9 -3 -11 -22 -6 -15 3 -26 2 -26 -4 0 -5 12 -13 26 -16 19 -5
25 -12 22 -29 -4 -28 -49 -35 -69 -11 -12 15 -11 16 20 9 23 -5 31 -4 27 4 -4
6 -13 11 -20 11 -8 0 -19 7 -26 15 -10 12 -10 18 0 31 15 17 61 15 68 -4z
m284 1 c30 -27 22 -43 -23 -43 -27 0 -38 -4 -33 -11 4 -6 19 -9 36 -5 21 4 28
2 26 -7 -3 -6 -18 -13 -34 -15 -40 -4 -61 28 -44 69 14 33 43 38 72 12z m60
-61 c11 -2 19 5 22 20 3 13 7 32 9 43 3 11 5 -4 6 -32 l1 -53 -35 0 -35 0 1
53 c2 51 2 51 8 12 4 -27 12 -41 23 -43z m136 26 l-2 -53 -3 46 c-4 41 -7 46
-24 42 -13 -4 -21 -17 -25 -44 -9 -55 -24 -48 -24 11 l0 50 40 0 40 0 -2 -52z
m93 36 c12 -15 10 -16 -21 -10 -30 6 -33 5 -18 -6 9 -7 25 -18 35 -24 16 -10
16 -13 4 -28 -16 -19 -62 -18 -69 1 -2 9 6 11 30 8 l33 -5 -32 15 c-31 14 -43
42 -26 58 12 13 51 7 64 -9z m149 -10 c14 -35 14 -34 -25 -34 -19 0 -35 -5
-35 -11 0 -7 11 -9 30 -5 17 3 30 1 30 -5 0 -15 -27 -22 -55 -15 -21 5 -25 12
-25 45 0 40 8 49 48 50 15 1 26 -7 32 -25z m-2930 -64 c0 -5 -4 -10 -10 -10
-5 0 -10 5 -10 10 0 6 5 10 10 10 6 0 10 -4 10 -10z m2980 0 c0 -5 -7 -10 -15
-10 -8 0 -15 5 -15 10 0 6 7 10 15 10 8 0 15 -4 15 -10z m-2922 -126 c30 -21
29 -59 -3 -80 -21 -13 -28 -14 -41 -4 -33 28 -37 50 -13 76 27 28 28 29 57 8z
m62 -380 c14 -50 28 -47 39 8 4 19 14 34 24 36 15 3 17 -6 17 -62 0 -52 -3
-66 -15 -66 -9 0 -15 10 -16 28 l-1 27 -7 -25 c-12 -42 -36 -36 -52 12 l-14
43 -6 -45 c-5 -41 -6 -39 -7 23 -2 81 18 93 38 21z m445 36 c3 -5 2 -10 -4
-10 -5 0 -13 5 -16 10 -3 6 -2 10 4 10 5 0 13 -4 16 -10z m476 -2 c6 -87 3
-118 -11 -116 -18 4 -32 85 -18 111 10 20 28 23 29 5z m189 -53 c0 -37 -4 -65
-10 -65 -6 0 -10 28 -10 65 0 37 4 65 10 65 6 0 10 -28 10 -65z m40 0 c0 -37
-4 -65 -10 -65 -6 0 -10 28 -10 65 0 37 4 65 10 65 6 0 10 -28 10 -65z m540 0
c0 -65 0 -65 -28 -65 -35 0 -52 16 -52 50 0 30 17 50 42 50 10 0 18 7 18 15 0
8 5 15 10 15 6 0 10 -28 10 -65z m301 53 c6 -87 3 -118 -11 -116 -18 4 -32 85
-18 111 10 20 28 23 29 5z m279 -2 c0 -8 6 -17 13 -20 10 -5 10 -7 0 -12 -15
-7 -18 -64 -3 -64 6 0 10 -4 10 -10 0 -5 -9 -10 -19 -10 -15 0 -20 9 -23 48
-2 26 -2 55 0 65 5 20 22 23 22 3z m-2668 -32 c9 -20 6 -30 -23 -69 -42 -55
-63 -55 -103 2 -25 36 -28 46 -19 66 10 21 18 24 73 24 55 1 62 -1 72 -23z
m576 -35 l3 -46 -35 -1 c-45 -2 -69 24 -41 44 10 8 27 14 38 14 10 0 15 5 11
11 -3 6 -17 8 -30 5 -13 -4 -24 -3 -24 2 0 16 14 23 45 20 28 -3 30 -6 33 -49z
m194 37 c11 -16 9 -86 -2 -86 -5 0 -10 18 -10 40 0 28 -4 40 -14 40 -16 0 -26
-21 -26 -56 0 -13 -4 -24 -10 -24 -5 0 -10 18 -10 40 0 40 -13 53 -24 24 -3
-9 -6 -27 -6 -40 0 -13 -4 -24 -10 -24 -5 0 -10 22 -10 50 l0 49 58 -1 c31 -1
60 -6 64 -12z m96 2 c21 -21 13 -38 -18 -38 -20 0 -30 -5 -30 -15 0 -8 7 -15
15 -15 8 0 15 5 15 10 0 6 7 10 15 10 8 0 15 -4 15 -8 0 -15 -24 -32 -45 -32
-28 0 -45 19 -45 50 0 31 17 50 45 50 12 0 26 -5 33 -12z m70 -2 c-12 -8 -18
-27 -18 -50 0 -25 -4 -36 -15 -36 -11 0 -15 12 -15 50 0 50 0 50 33 50 29 -1
30 -2 15 -14z m92 -5 c15 -28 13 -31 -20 -31 -20 0 -30 -5 -30 -15 0 -18 21
-20 38 -3 17 17 28 2 12 -17 -15 -18 -51 -20 -68 -3 -7 7 -12 24 -12 38 0 14
5 31 12 38 18 18 56 14 68 -7z m151 -8 c8 -21 5 -23 -26 -23 -19 0 -35 -5 -35
-10 0 -17 29 -23 45 -10 12 10 15 9 15 -4 0 -21 -23 -30 -55 -22 -21 5 -25 12
-25 45 0 22 6 42 13 45 26 11 60 1 68 -21z m87 9 c3 -9 -3 -11 -22 -6 -16 4
-26 2 -26 -5 0 -6 6 -11 13 -11 7 0 22 -6 32 -14 16 -12 17 -16 6 -30 -19 -22
-58 -20 -71 4 -8 16 -8 20 4 20 8 0 16 -5 18 -12 3 -7 11 -9 24 -3 17 7 15 9
-13 18 -31 9 -43 33 -26 51 11 11 56 2 61 -12z m200 -33 l3 -46 -35 -1 c-45
-2 -69 24 -41 44 10 8 27 14 38 14 10 0 15 5 11 11 -3 6 -17 8 -30 5 -13 -4
-24 -3 -24 2 0 16 14 23 45 20 28 -3 30 -6 33 -49z m174 34 c27 -24 22 -33
-17 -33 -24 0 -35 -5 -35 -15 0 -17 25 -20 35 -5 3 6 13 10 21 10 12 0 12 -4
4 -20 -15 -27 -61 -27 -78 1 -11 17 -11 27 -2 50 14 33 43 38 72 12z m156 -35
c4 -56 -15 -66 -20 -10 -2 25 -8 37 -18 37 -10 0 -16 -12 -18 -37 -4 -51 -22
-49 -22 2 0 29 -4 40 -15 40 -11 0 -15 -11 -15 -40 0 -22 -4 -40 -10 -40 -5 0
-10 23 -10 50 l0 50 63 -2 62 -3 3 -47z m100 1 l3 -46 -39 -1 c-29 -1 -42 3
-47 15 -7 20 18 43 48 43 10 0 15 5 11 11 -3 6 -17 9 -30 6 -13 -2 -24 -1 -24
3 0 14 15 21 45 18 28 -3 30 -6 33 -49z m88 -4 c2 -48 2 -48 -5 -10 -9 57 -38
61 -47 6 -9 -57 -24 -51 -24 10 l0 50 38 -3 37 -3 1 -50z m204 36 c15 -28 13
-31 -20 -31 -20 0 -30 -5 -30 -15 0 -8 7 -15 15 -15 8 0 15 5 15 10 0 6 7 10
15 10 8 0 15 -4 15 -8 0 -15 -24 -32 -45 -32 -28 0 -45 19 -45 50 0 14 5 31
12 38 18 18 56 14 68 -7z m142 2 c27 -24 22 -33 -17 -33 -19 0 -35 -5 -35 -10
0 -16 33 -26 38 -12 2 7 10 12 18 12 12 0 12 -4 4 -20 -13 -24 -47 -26 -72 -3
-22 20 -23 32 -2 61 18 26 41 28 66 5z m208 -2 c15 -29 13 -31 -25 -31 -24 0
-35 -5 -35 -15 0 -8 9 -15 20 -15 11 0 20 5 20 10 0 6 11 10 24 10 14 0 28 -4
31 -10 8 -12 35 -13 35 -1 0 5 -11 12 -25 15 -18 5 -25 13 -25 32 0 22 4 25
32 22 17 -2 33 -9 36 -15 2 -9 -5 -11 -27 -7 -40 8 -40 -4 0 -18 23 -8 29 -16
27 -32 -4 -25 -56 -36 -69 -14 -7 10 -11 10 -21 0 -15 -15 -50 -16 -66 0 -7 7
-12 24 -12 38 0 14 5 31 12 38 18 18 56 14 68 -7z m-1877 -191 c8 0 8 -3 -1
-12 -16 -16 -15 -65 1 -71 6 -3 2 -6 -10 -6 -20 -1 -23 4 -23 39 0 22 -4 40
-10 40 -5 0 -10 -18 -10 -40 l0 -40 -82 3 -83 2 0 40 c0 37 2 40 29 43 16 2
33 -1 39 -7 16 -16 0 -26 -17 -12 -21 18 -36 5 -36 -30 0 -22 5 -29 20 -29 11
0 20 5 20 10 0 6 5 10 11 10 6 0 17 7 25 15 9 8 24 15 35 15 12 0 17 4 13 11
-3 6 -17 8 -31 4 -17 -4 -22 -2 -18 5 4 6 21 11 39 10 49 -3 53 -1 61 23 l8
22 4 -22 c2 -13 9 -23 16 -23z m-439 -12 c3 -7 7 -28 10 -45 l6 -33 -45 0
c-39 0 -45 3 -45 20 0 14 11 25 30 34 35 14 29 28 -9 20 -20 -4 -23 -3 -11 5
21 15 60 14 64 -1z m56 -17 l5 -24 12 27 c15 32 37 35 27 4 -25 -82 -37 -86
-66 -19 -16 39 -17 42 -1 39 9 -2 20 -14 23 -27z m139 15 c7 -8 11 -27 9 -43
-3 -25 -7 -28 -43 -28 -36 0 -40 3 -43 28 -4 34 13 57 43 57 12 0 28 -6 34
-14z m325 8 c9 -3 16 -15 16 -25 0 -15 -7 -19 -35 -19 -19 0 -35 -5 -35 -10 0
-16 30 -24 43 -11 15 15 27 14 27 -4 0 -11 -11 -15 -40 -15 -34 0 -41 4 -46
24 -12 48 23 78 70 60z m63 -80 c-3 -3 -12 -4 -19 -1 -8 3 -5 6 6 6 11 1 17
-2 13 -5z m-408 -294 c14 -47 28 -51 37 -12 10 47 13 52 29 52 12 0 15 -13 15
-65 0 -51 -3 -65 -15 -65 -10 0 -15 11 -16 33 l-1 32 -7 -30 c-10 -47 -35 -43
-51 7 l-14 43 -7 -45 c-6 -42 -6 -40 -7 23 -2 78 17 93 37 27z m374 33 c-27
-10 -11 -23 27 -23 22 0 40 -4 40 -10 0 -5 -7 -10 -15 -10 -11 0 -15 -11 -15
-40 0 -29 -4 -40 -15 -40 -11 0 -15 12 -15 46 0 27 -4 43 -10 39 -5 -3 -10
-24 -10 -46 0 -55 -17 -49 -22 9 -6 64 0 82 26 81 11 0 15 -3 9 -6z m122 -3
c3 -5 -1 -10 -9 -10 -8 0 -18 5 -21 10 -3 6 1 10 9 10 8 0 18 -4 21 -10z m465
-4 c0 -8 6 -17 13 -20 10 -5 10 -7 0 -12 -15 -7 -18 -64 -3 -64 6 0 10 -4 10
-10 0 -5 -9 -10 -19 -10 -15 0 -20 9 -23 48 -2 26 -2 55 0 65 5 20 22 23 22 3z
m347 8 c-3 -3 -12 -4 -19 -1 -8 3 -5 6 6 6 11 1 17 -2 13 -5z m353 -59 c0 -51
-3 -65 -15 -65 -11 0 -15 11 -15 41 0 33 -3 40 -17 37 -12 -2 -20 -16 -24 -43
-6 -39 -6 -39 -8 13 -1 49 0 52 24 52 16 0 25 6 25 15 0 8 7 15 15 15 12 0 15
-14 15 -65z m388 58 c-21 -5 -23 -19 -5 -27 10 -5 10 -7 0 -12 -7 -3 -13 -23
-13 -45 0 -55 -17 -49 -22 9 -6 68 0 82 31 81 17 -1 20 -3 9 -6z m479 1 c-3
-3 -12 -4 -19 -1 -8 3 -5 6 6 6 11 1 17 -2 13 -5z m-2926 -35 c17 -33 -36
-109 -78 -109 -34 0 -80 72 -65 104 9 20 17 23 71 23 50 1 63 -2 72 -18z m571
-6 c27 -24 22 -33 -17 -33 -24 0 -35 -5 -35 -15 0 -17 25 -20 35 -5 3 6 13 10
21 10 12 0 12 -4 4 -20 -13 -24 -47 -26 -72 -3 -22 20 -23 32 -2 61 18 26 41
28 66 5z m99 1 c11 -14 9 -15 -26 -8 -25 4 -36 3 -32 -3 4 -6 20 -13 37 -16
16 -4 30 -13 30 -21 0 -38 -72 -49 -78 -11 -3 16 -1 18 9 8 15 -15 39 -17 39
-3 0 5 -11 12 -25 16 -24 6 -34 32 -18 47 12 13 50 7 64 -9z m247 4 c23 -23
13 -38 -23 -38 -19 0 -35 -5 -35 -10 0 -17 29 -23 45 -10 18 15 30 7 22 -15
-8 -18 -58 -20 -75 -3 -27 27 -5 88 31 88 13 0 28 -5 35 -12z m82 2 c0 -5 -6
-10 -14 -10 -16 0 -26 -21 -26 -56 0 -13 -4 -24 -10 -24 -5 0 -10 23 -10 50 0
49 1 50 30 50 17 0 30 -4 30 -10z m78 -2 c23 -23 13 -38 -23 -38 -19 0 -35 -5
-35 -10 0 -16 30 -24 43 -11 14 14 57 15 57 1 0 -5 9 -10 20 -10 31 0 23 20
-11 27 -23 4 -29 10 -27 27 4 27 68 38 68 11 0 -11 -6 -14 -25 -9 -15 4 -25 2
-25 -5 0 -6 8 -11 18 -11 30 0 45 -16 37 -39 -8 -26 -59 -29 -73 -5 -8 14 -10
14 -21 0 -37 -44 -97 5 -73 59 13 27 49 34 70 13z m240 0 c23 -23 13 -38 -23
-38 -24 0 -35 -5 -35 -15 0 -8 9 -15 20 -15 11 0 20 5 20 10 0 6 7 10 15 10
18 0 19 -12 3 -28 -15 -15 -51 -15 -66 0 -7 7 -12 24 -12 38 0 31 17 50 45 50
12 0 26 -5 33 -12z m253 -5 c14 -12 17 -12 22 2 4 9 19 15 36 15 24 0 32 -5
37 -25 3 -14 3 -36 0 -50 -5 -20 -13 -25 -36 -25 -17 0 -33 7 -39 18 -10 16
-10 16 -11 0 0 -10 -7 -18 -15 -18 -11 0 -15 11 -15 40 0 45 -26 58 -34 18 -3
-13 -7 -32 -9 -43 -3 -11 -5 -3 -6 17 -2 63 -40 59 -41 -4 0 -16 -4 -28 -10
-28 -5 0 -10 22 -10 50 l0 49 58 -1 c33 0 64 -7 73 -15z m139 -33 c0 -38 -4
-50 -15 -50 -11 0 -15 12 -15 50 0 38 4 50 15 50 11 0 15 -12 15 -50z m138 38
c7 -7 12 -24 12 -38 0 -30 -17 -50 -42 -50 -10 0 -18 -7 -18 -15 0 -8 -7 -15
-15 -15 -12 0 -15 14 -15 65 l0 65 33 0 c18 0 38 -5 45 -12z m100 0 c7 -7 12
-29 12 -51 l0 -38 -42 3 c-36 2 -44 7 -46 26 -3 18 2 23 27 28 17 4 31 11 31
16 0 6 -14 7 -32 2 -29 -6 -31 -5 -19 10 16 19 52 21 69 4z m202 -13 c6 -16 6
-34 0 -51 -8 -21 -15 -25 -42 -22 -29 3 -33 7 -36 36 -5 49 3 62 38 62 23 0
33 -6 40 -25z m98 -27 c2 -29 -1 -48 -7 -48 -6 0 -11 18 -11 40 0 28 -4 40
-14 40 -16 0 -26 -21 -26 -56 0 -13 -4 -24 -10 -24 -5 0 -10 23 -10 51 l0 50
38 -3 c37 -3 37 -3 40 -50z m90 34 c3 -9 -3 -11 -22 -6 -16 4 -26 2 -26 -5 0
-6 6 -11 13 -11 7 0 22 -6 32 -14 16 -12 17 -16 6 -30 -19 -22 -58 -20 -71 4
-9 16 -8 20 5 20 8 0 15 -4 15 -10 0 -5 7 -10 16 -10 23 0 11 24 -14 28 -21 3
-30 31 -15 46 11 11 56 2 61 -12z m260 -33 l3 -46 -40 -1 c-32 -2 -41 2 -46
19 -8 23 8 39 38 39 9 0 17 5 17 11 0 7 -10 9 -25 5 -14 -4 -25 -2 -25 3 0 5
-9 7 -20 4 -16 -4 -20 -14 -20 -44 0 -22 -4 -39 -10 -39 -5 0 -10 22 -10 50
l0 50 68 -3 67 -2 3 -46z m100 -1 c4 -56 -15 -66 -20 -11 -2 27 -8 39 -20 41
-15 3 -18 -4 -18 -37 0 -23 -4 -41 -10 -41 -5 0 -10 23 -10 51 l0 50 38 -3
c37 -3 37 -3 40 -50z m89 37 c7 -21 -6 -33 -17 -16 -11 19 -40 6 -40 -19 0
-30 23 -34 61 -11 19 12 44 21 57 21 14 0 21 4 16 11 -4 6 -19 9 -36 5 -21 -4
-28 -2 -25 7 2 6 19 12 38 12 33 0 34 -1 37 -45 3 -46 3 -46 -32 -48 -19 -1
-37 2 -41 8 -9 14 -44 -10 -38 -27 3 -9 -4 -13 -22 -13 -16 0 -24 4 -20 11 4
5 1 24 -5 40 -17 41 0 79 35 79 14 0 28 -7 32 -15z m143 -35 c0 -38 -4 -50
-15 -50 -11 0 -15 12 -15 50 0 38 4 50 15 50 11 0 15 -12 15 -50z m81 34 c12
-15 10 -16 -19 -10 -18 5 -32 4 -32 -2 0 -5 14 -12 30 -15 39 -8 42 -44 4 -53
-27 -7 -65 19 -50 33 5 5 11 2 13 -4 5 -14 33 -18 33 -5 0 5 -11 14 -25 20
-24 11 -32 31 -18 45 12 13 51 7 64 -9z m49 -78 c0 -8 -4 -18 -10 -21 -5 -3
-10 3 -10 14 0 12 5 21 10 21 6 0 10 -6 10 -14z m-2880 -86 c0 -5 -7 -10 -15
-10 -8 0 -15 5 -15 10 0 6 7 10 15 10 8 0 15 -4 15 -10z m38 -38 c-13 -6 -9
-70 5 -75 7 -4 6 -6 -4 -6 -13 -1 -18 10 -21 47 -2 26 -2 55 0 65 4 16 6 15
16 -5 7 -13 8 -24 4 -26z m142 -17 c0 -37 -4 -65 -10 -65 -6 0 -10 28 -10 65
0 37 4 65 10 65 6 0 10 -28 10 -65z m40 55 c0 -5 -4 -10 -10 -10 -5 0 -10 5
-10 10 0 6 5 10 10 10 6 0 10 -4 10 -10z m391 -12 c1 -13 0 -38 -1 -57 -1 -19
4 -37 12 -42 9 -6 7 -9 -8 -9 -19 0 -23 7 -26 48 -5 53 0 82 13 82 5 0 9 -10
10 -22z m199 -43 c0 -51 -3 -65 -15 -65 -12 0 -15 14 -15 65 0 51 3 65 15 65
12 0 15 -14 15 -65z m27 -32 c-2 -21 -4 -6 -4 32 0 39 2 55 4 38 2 -18 2 -50
0 -70z m553 31 l0 -65 -37 3 c-37 3 -38 4 -41 46 -3 41 -2 42 27 42 24 0 31 4
31 20 0 11 5 20 10 20 6 0 10 -29 10 -66z m124 51 c3 -9 0 -15 -8 -15 -8 0
-16 7 -20 15 -3 9 0 15 8 15 8 0 16 -7 20 -15z m116 -50 c0 -51 -3 -65 -15
-65 -12 0 -15 14 -15 65 0 51 3 65 15 65 12 0 15 -14 15 -65z m430 55 c0 -5
-4 -10 -10 -10 -5 0 -10 5 -10 10 0 6 5 10 10 10 6 0 10 -4 10 -10z m-2060
-75 c0 -33 -4 -45 -15 -45 -11 0 -15 12 -15 45 0 33 4 45 15 45 11 0 15 -12
15 -45z m140 16 c0 -16 3 -37 6 -46 6 -14 0 -16 -37 -13 -56 4 -67 33 -20 51
40 15 40 31 1 22 -19 -4 -30 -3 -30 4 0 6 18 11 40 11 38 0 40 -2 40 -29z m80
-16 c0 -25 -4 -45 -10 -45 -5 0 -10 20 -10 45 0 25 5 45 10 45 6 0 10 -20 10
-45z m104 29 c11 -29 6 -34 -29 -34 -19 0 -35 -5 -35 -10 0 -16 33 -26 38 -12
4 14 32 16 32 3 0 -14 -38 -24 -66 -17 -19 5 -24 13 -24 40 0 18 3 36 7 39 13
14 71 7 77 -9z m96 -29 c0 -25 -4 -45 -10 -45 -5 0 -10 18 -10 40 0 33 -3 40
-20 40 -17 0 -20 -7 -20 -40 0 -22 -4 -40 -10 -40 -5 0 -10 20 -10 45 l0 45
40 0 40 0 0 -45z m148 33 c23 -23 13 -37 -28 -40 -32 -2 -38 -6 -30 -18 8 -12
13 -13 30 -2 29 17 46 16 30 -4 -17 -19 -69 -15 -83 8 -18 27 7 68 41 68 15 0
33 -5 40 -12z m192 -17 c0 -16 3 -37 6 -46 6 -14 0 -16 -37 -13 -36 2 -44 7
-44 23 0 14 10 23 33 30 43 12 41 29 -3 21 -22 -4 -35 -3 -35 4 0 5 18 10 40
10 38 0 40 -2 40 -29z m184 13 c11 -29 6 -34 -29 -34 -26 0 -33 -3 -29 -15 7
-17 34 -21 34 -5 0 6 7 10 15 10 8 0 15 -4 15 -9 0 -14 -38 -24 -66 -17 -19 5
-24 13 -24 40 0 18 3 36 7 39 13 14 71 7 77 -9z m146 -29 c0 -25 -4 -45 -10
-45 -5 0 -10 18 -10 41 0 52 -24 48 -28 -4 -5 -53 -32 -50 -32 3 0 22 -4 40
-10 40 -5 0 -10 -18 -10 -40 0 -29 -4 -40 -15 -40 -11 0 -15 12 -15 45 l0 45
65 0 65 0 0 -45z m100 0 l0 -45 -39 0 c-22 0 -42 4 -45 9 -11 18 6 40 35 46
16 4 26 11 23 17 -3 5 -17 7 -30 4 -14 -4 -24 -2 -24 4 0 5 18 10 40 10 l40 0
0 -45z m100 0 c0 -54 -18 -60 -22 -7 -2 25 -8 37 -18 37 -10 0 -16 -12 -18
-37 -4 -53 -22 -47 -22 7 l0 45 40 0 40 0 0 -45z m250 0 l0 -45 -39 0 c-22 0
-42 4 -45 9 -11 18 7 42 35 48 16 3 26 10 23 15 -4 5 -17 7 -30 4 -14 -4 -24
-2 -24 4 0 5 18 10 40 10 l40 0 0 -45z m180 16 c0 -16 3 -37 6 -46 6 -14 0
-16 -37 -13 -36 2 -44 7 -44 23 0 14 10 23 34 31 39 13 25 30 -15 20 -17 -5
-23 -3 -19 4 3 5 22 10 41 10 31 0 34 -3 34 -29z m208 -18 c2 -34 0 -43 -12
-43 -12 0 -16 10 -16 40 0 40 -13 53 -24 24 -3 -9 -6 -27 -6 -40 0 -13 -4 -24
-10 -24 -5 0 -10 18 -10 40 0 45 -26 58 -34 18 -3 -13 -7 -32 -9 -43 -3 -11
-5 2 -6 28 l-1 48 63 -3 62 -3 3 -42z m100 -1 l3 -43 -43 3 c-55 4 -66 33 -19
51 40 15 40 31 1 23 -20 -4 -29 -2 -25 5 4 5 23 9 43 7 36 -3 37 -4 40 -46z
m32 3 c0 -25 -4 -45 -10 -45 -5 0 -10 20 -10 45 0 25 5 45 10 45 6 0 10 -20
10 -45z m90 35 c0 -6 -11 -8 -25 -4 -15 4 -25 2 -25 -5 0 -6 6 -11 14 -11 8 0
22 -7 30 -16 15 -14 16 -14 16 3 0 28 20 43 57 43 27 0 34 -5 39 -27 4 -14 2
-33 -3 -42 -12 -19 -59 -27 -76 -12 -8 6 -18 6 -27 1 -22 -14 -56 -12 -70 5
-10 12 -10 15 3 15 8 0 17 -5 19 -12 3 -7 11 -9 24 -4 17 8 16 10 -13 22 -47
20 -46 54 2 54 19 0 35 -5 35 -10z m200 -35 c0 -54 -18 -60 -22 -7 -2 25 -8
37 -18 37 -10 0 -16 -12 -18 -37 -4 -53 -22 -47 -22 7 l0 45 40 0 40 0 0 -45z
m47 -41 c-3 -3 -12 -4 -19 -1 -8 3 -5 6 6 6 11 1 17 -2 13 -5z m-2072 -281
l25 -38 0 38 c0 26 4 37 15 37 12 0 15 -14 15 -65 0 -51 -3 -65 -15 -65 -8 0
-15 4 -15 9 0 4 -13 25 -30 46 l-30 38 0 -47 c0 -25 -4 -46 -10 -46 -6 0 -10
28 -10 65 0 78 15 85 55 28z m1715 -28 l0 -65 -35 0 c-29 0 -36 4 -41 25 -11
42 3 75 31 75 16 0 25 6 25 15 0 8 5 15 10 15 6 0 10 -28 10 -65z m-2219 24
c17 -33 -36 -109 -78 -109 -34 0 -80 72 -65 104 9 20 17 23 71 23 50 1 63 -2
72 -18z m653 -5 c30 -29 9 -84 -31 -84 -21 0 -53 29 -53 48 0 22 30 52 51 52
10 0 25 -7 33 -16z m42 -41 c8 -38 33 -27 40 17 9 56 24 50 24 -11 l0 -50 -37
3 -38 3 -2 50 c-1 47 0 45 13 -12z m152 40 c2 -9 -6 -11 -30 -7 -23 5 -30 3
-23 -4 6 -5 19 -12 30 -14 14 -2 20 -11 20 -28 0 -21 -5 -26 -33 -28 -22 -2
-34 2 -38 13 -8 21 3 32 18 17 14 -14 38 -16 38 -3 0 5 -13 14 -30 20 -28 9
-38 29 -23 45 11 11 66 2 71 -11z m150 -34 l3 -46 -40 -1 c-32 -2 -41 2 -46
19 -8 23 8 39 38 39 9 0 17 5 17 11 0 7 -10 9 -25 5 -14 -4 -25 -3 -25 2 0 16
14 23 45 20 28 -3 30 -6 33 -49z m36 26 c4 -14 11 -25 16 -25 5 0 12 11 16 25
7 27 24 34 24 10 0 -25 -28 -85 -40 -85 -10 0 -24 29 -36 75 -3 14 -2 25 4 25
5 0 13 -11 16 -25z m148 0 c16 -35 -3 -75 -35 -75 -30 0 -47 18 -47 50 0 52
61 71 82 25z m96 -27 c2 -29 -1 -48 -7 -48 -6 0 -11 18 -11 40 0 28 -4 40 -14
40 -16 0 -26 -21 -26 -56 0 -13 -4 -24 -10 -24 -5 0 -10 23 -10 51 l0 50 38
-3 c37 -3 37 -3 40 -50z m93 36 c12 -15 10 -16 -19 -10 -40 9 -42 -2 -2 -15
32 -12 38 -27 18 -47 -17 -17 -58 -15 -65 3 -7 21 4 32 19 17 15 -15 28 -15
28 -2 0 6 -11 15 -25 20 -24 9 -32 29 -18 43 12 13 51 7 64 -9z m91 -21 c2
-26 8 -38 18 -38 10 0 16 12 18 38 5 55 22 45 22 -14 l0 -50 -37 3 c-38 3 -38
3 -41 51 -4 55 15 65 20 10z m156 -15 c2 -38 0 -48 -12 -48 -12 0 -16 10 -16
40 0 40 -13 53 -24 24 -3 -9 -6 -27 -6 -40 0 -13 -4 -24 -10 -24 -5 0 -10 23
-10 51 l0 50 38 -3 c37 -3 37 -3 40 -50z m94 35 c27 -24 22 -33 -17 -33 -24 0
-35 -5 -35 -15 0 -17 25 -20 35 -5 3 6 13 10 21 10 12 0 12 -4 4 -20 -13 -24
-47 -26 -72 -3 -22 20 -23 32 -2 61 18 26 41 28 66 5z m158 -36 c0 -29 -5 -58
-12 -65 -15 -15 -65 -16 -74 -1 -4 8 3 9 25 4 20 -4 31 -3 31 4 0 6 -8 11 -18
11 -25 0 -42 20 -42 50 0 35 17 50 57 50 l33 0 0 -53z m70 41 c0 -9 3 -9 12 0
15 15 51 15 66 0 7 -7 12 -29 12 -51 l0 -38 -42 3 c-36 2 -44 7 -46 26 -3 18
2 23 27 28 46 9 38 21 -14 21 l-45 0 0 -39 c0 -21 -4 -38 -10 -38 -5 0 -10 23
-10 50 0 47 2 50 25 50 14 0 25 -5 25 -12z m178 0 c18 -18 16 -88 -3 -88 -11
0 -15 11 -15 40 0 28 -4 40 -14 40 -16 0 -26 -21 -26 -56 0 -13 -4 -24 -10
-24 -5 0 -10 23 -10 50 0 50 0 50 33 50 18 0 38 -5 45 -12z m203 -15 c8 -21 5
-23 -26 -23 -19 0 -35 -5 -35 -10 0 -18 29 -23 46 -9 14 12 16 11 13 -6 -9
-44 -89 -21 -89 25 0 49 75 67 91 23z m197 -25 c4 -56 -15 -66 -20 -11 -4 52
-28 56 -28 4 0 -51 -18 -54 -22 -3 -2 25 -8 37 -18 37 -10 0 -16 -12 -18 -37
-5 -56 -22 -46 -22 12 l0 50 63 -2 62 -3 3 -47z m100 1 l3 -46 -35 -1 c-41 -2
-65 20 -46 43 7 8 23 15 37 15 15 0 22 4 17 11 -3 6 -17 8 -30 5 -13 -4 -24
-3 -24 2 0 16 14 23 45 20 28 -3 30 -6 33 -49z m42 1 c0 -27 -4 -50 -10 -50
-5 0 -10 23 -10 50 0 28 5 50 10 50 6 0 10 -22 10 -50z m88 31 c3 -10 -2 -12
-22 -7 -14 3 -26 2 -26 -3 0 -5 12 -12 26 -15 19 -5 25 -12 22 -29 -3 -25 -41
-35 -64 -17 -18 16 -18 30 1 30 8 0 15 -4 15 -10 0 -5 7 -10 15 -10 26 0 16
18 -15 29 -33 11 -37 20 -18 39 16 16 60 11 66 -7z m98 -6 c15 -23 15 -27 0
-50 -22 -34 -62 -34 -78 0 -16 36 3 75 37 75 15 0 31 -9 41 -25z m102 -27 c2
-38 0 -48 -12 -48 -12 0 -16 10 -16 40 0 45 -26 58 -34 18 -3 -13 -7 -32 -9
-43 -3 -11 -5 4 -6 33 l-1 53 38 -3 c37 -3 37 -3 40 -50z m-1908 -128 c0 -5
-4 -10 -10 -10 -5 0 -10 5 -10 10 0 6 5 10 10 10 6 0 10 -4 10 -10z m780 0 c0
-5 -4 -10 -10 -10 -5 0 -10 5 -10 10 0 6 5 10 10 10 6 0 10 -4 10 -10z"/>
<path d="M13090 5060 c0 -5 9 -10 20 -10 11 0 20 5 20 10 0 6 -9 10 -20 10
-11 0 -20 -4 -20 -10z"/>
<path d="M13430 5030 c-12 -8 -12 -10 2 -15 19 -7 38 1 38 16 0 12 -21 11 -40
-1z"/>
<path d="M13537 5064 c-4 -4 -7 -18 -7 -31 0 -18 5 -24 18 -21 10 2 17 12 17
27 0 24 -15 37 -28 25z"/>
<path d="M13634 5055 c-7 -18 2 -45 15 -45 5 0 11 7 15 15 7 18 -2 45 -15 45
-5 0 -12 -7 -15 -15z"/>
<path d="M13725 5060 c-3 -5 3 -10 14 -10 12 0 21 5 21 10 0 6 -6 10 -14 10
-8 0 -18 -4 -21 -10z"/>
<path d="M13900 5060 c0 -5 9 -10 20 -10 11 0 20 5 20 10 0 6 -9 10 -20 10
-11 0 -20 -4 -20 -10z"/>
<path d="M14140 5060 c0 -5 9 -10 20 -10 11 0 20 5 20 10 0 6 -9 10 -20 10
-11 0 -20 -4 -20 -10z"/>
<path d="M14547 5033 c-13 -12 -7 -23 13 -23 11 0 20 7 20 15 0 15 -21 21 -33
8z"/>
<path d="M14985 4651 c-3 -5 -1 -12 5 -16 12 -7 30 2 30 16 0 12 -27 12 -35 0z"/>
<path d="M13090 4690 c0 -5 9 -10 20 -10 11 0 20 5 20 10 0 6 -9 10 -20 10
-11 0 -20 -4 -20 -10z"/>
<path d="M13805 4690 c-3 -5 3 -10 14 -10 12 0 21 5 21 10 0 6 -6 10 -14 10
-8 0 -18 -4 -21 -10z"/>
<path d="M14120 4690 c0 -5 9 -10 21 -10 11 0 17 5 14 10 -3 6 -13 10 -21 10
-8 0 -14 -4 -14 -10z"/>
<path d="M14365 4690 c-3 -5 3 -10 15 -10 12 0 18 5 15 10 -3 6 -10 10 -15 10
-5 0 -12 -4 -15 -10z"/>
<path d="M15275 4649 c-4 -6 -5 -13 -2 -16 7 -7 27 6 27 18 0 12 -17 12 -25
-2z"/>
<path d="M15500 4690 c0 -5 7 -10 15 -10 8 0 15 5 15 10 0 6 -7 10 -15 10 -8
0 -15 -4 -15 -10z"/>
<path d="M15650 4690 c0 -5 7 -10 15 -10 8 0 15 5 15 10 0 6 -7 10 -15 10 -8
0 -15 -4 -15 -10z"/>
<path d="M12890 4450 c-8 -5 -11 -12 -8 -16 10 -9 38 3 38 16 0 12 -10 13 -30
0z"/>
<path d="M13180 4480 c0 -5 9 -10 20 -10 11 0 20 5 20 10 0 6 -9 10 -20 10
-11 0 -20 -4 -20 -10z"/>
<path d="M13410 4480 c0 -5 7 -10 15 -10 8 0 15 5 15 10 0 6 -7 10 -15 10 -8
0 -15 -4 -15 -10z"/>
<path d="M13565 4449 c-4 -6 -5 -13 -2 -16 7 -7 27 6 27 18 0 12 -17 12 -25
-2z"/>
<path d="M15614 4106 c-9 -24 4 -48 23 -44 12 2 18 12 18 28 0 29 -32 41 -41
16z"/>
<path d="M13090 4110 c0 -5 9 -10 20 -10 11 0 20 5 20 10 0 6 -9 10 -20 10
-11 0 -20 -4 -20 -10z"/>
<path d="M13320 4070 c0 -5 9 -10 20 -10 11 0 20 5 20 10 0 6 -9 10 -20 10
-11 0 -20 -4 -20 -10z"/>
<path d="M13610 4070 c0 -5 7 -10 15 -10 8 0 15 5 15 10 0 6 -7 10 -15 10 -8
0 -15 -4 -15 -10z"/>
<path d="M13835 4110 c-4 -6 5 -10 20 -10 15 0 24 4 20 10 -3 6 -12 10 -20 10
-8 0 -17 -4 -20 -10z"/>
<path d="M13937 4113 c-10 -10 -8 -41 3 -48 13 -8 50 4 50 16 0 24 -39 47 -53
32z"/>
<path d="M14024 4106 c-8 -22 3 -49 19 -43 6 2 12 14 12 27 0 27 -22 39 -31
16z"/>
<path d="M14160 4110 c0 -5 9 -10 20 -10 11 0 20 5 20 10 0 6 -9 10 -20 10
-11 0 -20 -4 -20 -10z"/>
<path d="M14310 4070 c0 -5 6 -10 14 -10 8 0 18 5 21 10 3 6 -3 10 -14 10 -12
0 -21 -4 -21 -10z"/>
<path d="M14627 4113 c-10 -10 -8 -41 3 -48 15 -9 60 6 60 21 0 8 -7 14 -15
14 -8 0 -15 5 -15 10 0 11 -23 14 -33 3z"/>
<path d="M14715 4110 c-4 -6 5 -10 20 -10 15 0 24 4 20 10 -3 6 -12 10 -20 10
-8 0 -17 -4 -20 -10z"/>
<path d="M15060 4070 c0 -5 6 -10 14 -10 8 0 18 5 21 10 3 6 -3 10 -14 10 -12
0 -21 -4 -21 -10z"/>
<path d="M15510 4070 c0 -5 9 -10 20 -10 11 0 20 5 20 10 0 6 -9 10 -20 10
-11 0 -20 -4 -20 -10z"/>
<path d="M15805 4110 c-3 -5 3 -10 14 -10 12 0 21 5 21 10 0 6 -6 10 -14 10
-8 0 -18 -4 -21 -10z"/>
<path d="M12812 3873 c-15 -6 -6 -23 14 -23 8 0 14 7 14 15 0 15 -6 17 -28 8z"/>
<path d="M13085 3869 c-4 -6 -4 -13 -1 -16 8 -8 36 5 36 17 0 13 -27 13 -35
-1z"/>
<path d="M13175 3900 c-3 -6 -3 -19 0 -31 10 -29 39 -20 43 14 3 21 -1 27 -17
27 -11 0 -23 -5 -26 -10z"/>
<path d="M13388 3903 c7 -3 16 -2 19 1 4 3 -2 6 -13 5 -11 0 -14 -3 -6 -6z"/>
<path d="M14118 3903 c6 -2 18 -2 25 0 6 3 1 5 -13 5 -14 0 -19 -2 -12 -5z"/>
<path d="M12817 3526 c-4 -10 -5 -21 -2 -24 9 -9 17 6 13 25 -3 17 -4 17 -11
-1z"/>
<path d="M13316 3525 c-7 -20 3 -45 19 -45 16 0 26 25 19 45 -4 8 -12 15 -19
15 -7 0 -15 -7 -19 -15z"/>
<path d="M13143 3503 c-18 -7 -16 -23 2 -23 8 0 15 7 15 15 0 8 -1 15 -2 14
-2 0 -9 -3 -15 -6z"/>
<path d="M13415 3530 c-4 -6 5 -10 20 -10 15 0 24 4 20 10 -3 6 -12 10 -20 10
-8 0 -17 -4 -20 -10z"/>
<path d="M13865 3530 c-3 -5 3 -10 15 -10 12 0 18 5 15 10 -3 6 -10 10 -15 10
-5 0 -12 -4 -15 -10z"/>
<path d="M14025 3530 c-3 -5 3 -10 15 -10 12 0 18 5 15 10 -3 6 -10 10 -15 10
-5 0 -12 -4 -15 -10z"/>
<path d="M13100 3150 c0 -5 9 -10 20 -10 11 0 20 5 20 10 0 6 -9 10 -20 10
-11 0 -20 -4 -20 -10z"/>
<path d="M13254 3146 c-9 -23 0 -51 16 -51 10 0 16 12 18 33 2 24 -1 32 -13
32 -8 0 -18 -6 -21 -14z"/>
<path d="M13405 3150 c-4 -6 5 -10 20 -10 15 0 24 4 20 10 -3 6 -12 10 -20 10
-8 0 -17 -4 -20 -10z"/>
<path d="M13700 3150 c0 -5 7 -10 15 -10 8 0 15 5 15 10 0 6 -7 10 -15 10 -8
0 -15 -4 -15 -10z"/>
<path d="M14035 3111 c-6 -11 9 -23 19 -14 9 9 7 23 -3 23 -6 0 -12 -4 -16 -9z"/>
<path d="M14132 3128 c4 -43 33 -46 33 -3 0 21 -5 31 -18 33 -15 3 -18 -2 -15
-30z"/>
<path d="M14234 3146 c-9 -23 0 -51 16 -51 10 0 16 12 18 33 2 24 -1 32 -13
32 -8 0 -18 -6 -21 -14z"/>
<path d="M14330 3150 c0 -5 9 -10 20 -10 11 0 20 5 20 10 0 6 -9 10 -20 10
-11 0 -20 -4 -20 -10z"/>
<path d="M14510 3150 c0 -5 7 -10 15 -10 8 0 15 5 15 10 0 6 -7 10 -15 10 -8
0 -15 -4 -15 -10z"/>
<path d="M14856 3142 c-9 -27 3 -54 23 -50 22 5 22 62 -1 66 -9 2 -19 -5 -22
-16z"/>
<path d="M15105 3111 c-3 -5 -1 -12 5 -16 12 -7 30 2 30 16 0 12 -27 12 -35 0z"/>
<path d="M15525 3109 c-4 -6 -4 -13 -1 -16 8 -8 36 5 36 17 0 13 -27 13 -35
-1z"/>
<path d="M12805 2940 c-10 -16 5 -50 21 -50 9 0 14 11 14 30 0 30 -21 42 -35
20z"/>
<path d="M13005 2909 c-4 -6 -4 -13 -1 -16 8 -8 36 5 36 17 0 13 -27 13 -35
-1z"/>
<path d="M13150 2920 c0 -25 4 -31 18 -28 11 2 17 12 17 28 0 16 -6 26 -17 28
-14 3 -18 -3 -18 -28z"/>
<path d="M13400 2940 c0 -5 7 -10 15 -10 8 0 15 5 15 10 0 6 -7 10 -15 10 -8
0 -15 -4 -15 -10z"/>
<path d="M13555 2909 c-4 -6 -5 -13 -2 -16 7 -7 27 6 27 18 0 12 -17 12 -25
-2z"/>
<path d="M12816 2564 c-7 -18 0 -34 15 -34 12 0 12 37 0 44 -5 3 -12 -1 -15
-10z"/>
<path d="M13724 2576 c-9 -23 0 -51 16 -51 10 0 15 10 15 29 0 32 -21 47 -31
22z"/>
<path d="M13100 2580 c0 -5 9 -10 20 -10 11 0 20 5 20 10 0 6 -9 10 -20 10
-11 0 -20 -4 -20 -10z"/>
<path d="M13340 2580 c0 -5 9 -10 20 -10 11 0 20 5 20 10 0 6 -9 10 -20 10
-11 0 -20 -4 -20 -10z"/>
<path d="M13435 2569 c-5 -13 -1 -27 8 -36 12 -12 18 -13 36 -1 24 15 28 38 6
38 -8 0 -15 5 -15 10 0 19 -29 10 -35 -11z"/>
<path d="M13525 2569 c-9 -27 19 -59 36 -42 15 15 7 57 -13 61 -10 2 -19 -6
-23 -19z"/>
<path d="M14005 2539 c-4 -6 -4 -13 -1 -16 8 -8 36 5 36 17 0 13 -27 13 -35
-1z"/>
<path d="M14104 2565 c-8 -31 10 -55 27 -38 14 14 8 55 -8 60 -7 3 -15 -7 -19
-22z"/>
<path d="M14206 2572 c-8 -24 3 -54 18 -49 15 5 14 59 -1 64 -6 2 -14 -5 -17
-15z"/>
<path d="M14300 2580 c0 -5 9 -10 21 -10 11 0 17 5 14 10 -3 6 -13 10 -21 10
-8 0 -14 -4 -14 -10z"/>
<path d="M14475 2580 c-4 -6 5 -10 20 -10 15 0 24 4 20 10 -3 6 -12 10 -20 10
-8 0 -17 -4 -20 -10z"/>
<path d="M14730 2540 c-12 -8 -12 -10 2 -15 19 -7 38 1 38 16 0 12 -21 11 -40
-1z"/>
<path d="M15080 2580 c0 -5 7 -10 15 -10 8 0 15 5 15 10 0 6 -7 10 -15 10 -8
0 -15 -4 -15 -10z"/>
<path d="M15405 2539 c-4 -6 -5 -13 -2 -16 7 -7 27 6 27 18 0 12 -17 12 -25
-2z"/>
<path d="M15655 2580 c-3 -5 3 -10 15 -10 12 0 18 5 15 10 -3 6 -10 10 -15 10
-5 0 -12 -4 -15 -10z"/>
<path d="M12812 2343 c-15 -6 -6 -23 14 -23 8 0 14 7 14 15 0 15 -6 17 -28 8z"/>
<path d="M15265 2040 c-3 -5 -1 -10 4 -10 6 0 11 5 11 10 0 6 -2 10 -4 10 -3
0 -8 -4 -11 -10z"/>
<path d="M13150 1981 c0 -25 4 -31 21 -31 16 0 20 5 17 27 -2 17 -10 29 -20
31 -14 3 -18 -3 -18 -27z"/>
<path d="M13398 1992 c-7 -27 6 -46 27 -39 10 4 15 15 13 29 -4 29 -34 36 -40
10z"/>
<path d="M13495 1960 c-3 -5 3 -10 14 -10 12 0 21 5 21 10 0 6 -6 10 -14 10
-8 0 -18 -4 -21 -10z"/>
<path d="M13595 1991 c-8 -27 1 -41 26 -41 16 0 20 6 17 27 -4 34 -33 43 -43
14z"/>
<path d="M13700 1960 c-12 -8 -11 -10 8 -10 12 0 22 5 22 10 0 13 -11 13 -30
0z"/>
<path d="M13845 2000 c-3 -5 3 -10 14 -10 12 0 21 5 21 10 0 6 -6 10 -14 10
-8 0 -18 -4 -21 -10z"/>
<path d="M14225 1960 c-3 -5 1 -10 9 -10 8 0 18 5 21 10 3 6 -1 10 -9 10 -8 0
-18 -4 -21 -10z"/>
<path d="M14400 2000 c0 -5 9 -10 20 -10 11 0 20 5 20 10 0 6 -9 10 -20 10
-11 0 -20 -4 -20 -10z"/>
<path d="M14645 2000 c-4 -6 5 -10 20 -10 15 0 24 4 20 10 -3 6 -12 10 -20 10
-8 0 -17 -4 -20 -10z"/>
<path d="M14975 2000 c-4 -6 5 -10 20 -10 15 0 24 4 20 10 -3 6 -12 10 -20 10
-8 0 -17 -4 -20 -10z"/>
<path d="M15350 2000 c0 -5 9 -10 21 -10 11 0 17 5 14 10 -3 6 -13 10 -21 10
-8 0 -14 -4 -14 -10z"/>
<path d="M15785 2000 c-4 -6 5 -10 20 -10 15 0 24 4 20 10 -3 6 -12 10 -20 10
-8 0 -17 -4 -20 -10z"/>
<path d="M14666 1415 c-8 -21 3 -45 20 -45 9 0 14 11 14 30 0 32 -23 42 -34
15z"/>
<path d="M13157 1393 c-12 -11 -8 -23 8 -23 8 0 15 7 15 15 0 16 -12 20 -23 8z"/>
<path d="M13450 1420 c0 -5 7 -10 15 -10 8 0 15 5 15 10 0 6 -7 10 -15 10 -8
0 -15 -4 -15 -10z"/>
<path d="M13610 1420 c0 -5 9 -10 21 -10 11 0 17 5 14 10 -3 6 -13 10 -21 10
-8 0 -14 -4 -14 -10z"/>
<path d="M13755 1420 c-4 -6 5 -10 20 -10 15 0 24 4 20 10 -3 6 -12 10 -20 10
-8 0 -17 -4 -20 -10z"/>
<path d="M14047 1393 c-12 -11 -8 -23 8 -23 8 0 15 7 15 15 0 16 -12 20 -23 8z"/>
<path d="M14220 1420 c0 -5 9 -10 21 -10 11 0 17 5 14 10 -3 6 -13 10 -21 10
-8 0 -14 -4 -14 -10z"/>
<path d="M14473 1393 c-20 -8 -15 -23 7 -23 11 0 20 7 20 15 0 15 -6 17 -27 8z"/>
<path d="M14770 1420 c0 -5 7 -10 15 -10 8 0 15 5 15 10 0 6 -7 10 -15 10 -8
0 -15 -4 -15 -10z"/>
<path d="M14915 1420 c-3 -5 3 -10 14 -10 12 0 21 5 21 10 0 6 -6 10 -14 10
-8 0 -18 -4 -21 -10z"/>
<path d="M15110 1420 c0 -5 9 -10 20 -10 11 0 20 5 20 10 0 6 -9 10 -20 10
-11 0 -20 -4 -20 -10z"/>
<path d="M13185 1179 c-4 -6 -4 -13 -1 -16 8 -8 36 5 36 17 0 13 -27 13 -35
-1z"/>
<path d="M12812 1183 c-15 -6 -6 -23 14 -23 8 0 14 7 14 15 0 15 -6 17 -28 8z"/>
<path d="M12994 1216 c-9 -24 0 -51 19 -54 15 -3 18 2 15 29 -3 35 -24 51 -34
25z"/>
<path d="M13325 1220 c-4 -6 5 -10 20 -10 15 0 24 4 20 10 -3 6 -12 10 -20 10
-8 0 -17 -4 -20 -10z"/>
<path d="M13150 840 c0 -5 9 -10 21 -10 11 0 17 5 14 10 -3 6 -13 10 -21 10
-8 0 -14 -4 -14 -10z"/>
<path d="M13495 840 c-4 -6 5 -10 20 -10 15 0 24 4 20 10 -3 6 -12 10 -20 10
-8 0 -17 -4 -20 -10z"/>
<path d="M13655 840 c-4 -6 5 -10 20 -10 15 0 24 4 20 10 -3 6 -12 10 -20 10
-8 0 -17 -4 -20 -10z"/>
<path d="M13890 840 c0 -5 9 -10 20 -10 11 0 20 5 20 10 0 6 -9 10 -20 10 -11
0 -20 -4 -20 -10z"/>
<path d="M14236 835 c-8 -23 4 -45 25 -45 14 0 19 7 19 30 0 23 -5 30 -19 30
-10 0 -21 -7 -25 -15z"/>
<path d="M14434 835 c-7 -18 2 -45 15 -45 5 0 11 7 15 15 7 18 -2 45 -15 45
-5 0 -12 -7 -15 -15z"/>
<path d="M14530 804 c0 -9 5 -14 12 -12 18 6 21 28 4 28 -9 0 -16 -7 -16 -16z"/>
<path d="M14724 836 c-9 -24 4 -48 23 -44 12 2 18 12 18 28 0 29 -32 41 -41
16z"/>
<path d="M15177 813 c-12 -11 -8 -23 8 -23 8 0 15 7 15 15 0 16 -12 20 -23 8z"/>
<path d="M15457 813 c-13 -12 -7 -23 13 -23 11 0 20 7 20 15 0 15 -21 21 -33
8z"/>
<path d="M14136 632 c-9 -27 3 -54 23 -50 22 5 22 62 -1 66 -9 2 -19 -5 -22
-16z"/>
<path d="M12901 601 c-9 -6 -10 -11 -2 -15 13 -8 31 1 31 15 0 11 -11 11 -29
0z"/>
<path d="M13075 640 c-3 -5 3 -10 14 -10 12 0 21 5 21 10 0 6 -6 10 -14 10 -8
0 -18 -4 -21 -10z"/>
<path d="M13320 640 c0 -5 9 -10 21 -10 11 0 17 5 14 10 -3 6 -13 10 -21 10
-8 0 -14 -4 -14 -10z"/>
<path d="M13520 600 c-12 -8 -12 -10 2 -15 19 -7 38 1 38 16 0 12 -21 11 -40
-1z"/>
<path d="M13700 640 c0 -5 7 -10 15 -10 8 0 15 5 15 10 0 6 -7 10 -15 10 -8 0
-15 -4 -15 -10z"/>
<path d="M13947 603 c-12 -11 -8 -23 8 -23 8 0 15 7 15 15 0 16 -12 20 -23 8z"/>
<path d="M14297 603 c-12 -11 -8 -23 8 -23 8 0 15 7 15 15 0 16 -12 20 -23 8z"/>
<path d="M14477 603 c-13 -12 -7 -23 13 -23 11 0 20 7 20 15 0 15 -21 21 -33
8z"/>
<path d="M14775 599 c-4 -6 -4 -13 -1 -16 8 -8 36 5 36 17 0 13 -27 13 -35 -1z"/>
<path d="M15004 636 c-9 -23 0 -51 16 -51 10 0 15 10 15 29 0 32 -21 47 -31
22z"/>
<path d="M14792 253 c2 -17 10 -29 21 -31 13 -3 17 3 17 27 0 25 -4 31 -21 31
-16 0 -20 -5 -17 -27z"/>
<path d="M13230 250 c0 -25 4 -31 18 -28 11 2 17 12 17 28 0 16 -6 26 -17 28
-14 3 -18 -3 -18 -28z"/>
<path d="M13567 243 c-13 -12 -7 -23 13 -23 11 0 20 7 20 15 0 15 -21 21 -33
8z"/>
<path d="M13754 266 c-9 -24 4 -48 23 -44 12 2 18 12 18 28 0 29 -32 41 -41
16z"/>
<path d="M14290 270 c0 -5 9 -10 21 -10 11 0 17 5 14 10 -3 6 -13 10 -21 10
-8 0 -14 -4 -14 -10z"/>
<path d="M14437 265 c-8 -20 3 -47 17 -42 6 2 11 14 11 27 0 27 -20 38 -28 15z"/>
<path d="M14605 239 c-4 -6 -5 -13 -2 -16 7 -7 27 6 27 18 0 12 -17 12 -25 -2z"/>
<path d="M14895 270 c-4 -6 5 -10 20 -10 15 0 24 4 20 10 -3 6 -12 10 -20 10
-8 0 -17 -4 -20 -10z"/>
<path d="M15187 244 c-9 -10 2 -24 19 -24 8 0 14 7 14 15 0 15 -21 21 -33 9z"/>
<path d="M15420 250 c0 -25 4 -31 18 -28 11 2 17 12 17 28 0 16 -6 26 -17 28
-14 3 -18 -3 -18 -28z"/>
<path d="M5415 5010 c-8 -12 24 -60 40 -60 16 0 48 48 40 60 -3 6 -21 10 -40
10 -19 0 -37 -4 -40 -10z"/>
<path d="M12995 70 c-3 -5 3 -10 14 -10 12 0 21 5 21 10 0 6 -6 10 -14 10 -8
0 -18 -4 -21 -10z"/>
<path d="M13326 54 c-8 -31 5 -49 29 -40 11 4 15 15 13 33 -4 38 -33 42 -42 7z"/>
<path d="M13570 45 c0 -24 5 -35 15 -35 10 0 15 11 15 35 0 24 -5 35 -15 35
-10 0 -15 -11 -15 -35z"/>
<path d="M13710 70 c0 -5 7 -10 15 -10 8 0 15 5 15 10 0 6 -7 10 -15 10 -8 0
-15 -4 -15 -10z"/>
<path d="M13804 56 c-7 -29 1 -46 22 -46 9 0 14 11 14 35 0 41 -26 49 -36 11z"/>
<path d="M14104 56 c-6 -26 1 -46 17 -46 5 0 9 16 9 35 0 40 -17 47 -26 11z"/>
<path d="M14254 66 c-9 -23 0 -51 16 -51 10 0 16 12 18 33 2 24 -1 32 -13 32
-8 0 -18 -6 -21 -14z"/>
<path d="M14345 60 c-6 -20 9 -50 25 -50 12 0 21 31 15 51 -8 25 -32 24 -40
-1z"/>
<path d="M14665 61 c-7 -24 4 -51 21 -51 9 0 14 12 14 35 0 38 -24 50 -35 16z"/>
<path d="M14770 45 c0 -24 5 -35 15 -35 10 0 15 11 15 35 0 24 -5 35 -15 35
-10 0 -15 -11 -15 -35z"/>
<path d="M14915 70 c-3 -5 3 -10 14 -10 12 0 21 5 21 10 0 6 -6 10 -14 10 -8
0 -18 -4 -21 -10z"/>
<path d="M15110 45 c0 -29 3 -36 18 -33 11 2 17 13 17 33 0 20 -6 31 -17 33
-15 3 -18 -4 -18 -33z"/>
<path d="M15210 70 c0 -5 9 -10 20 -10 11 0 20 5 20 10 0 6 -9 10 -20 10 -11
0 -20 -4 -20 -10z"/>
<path d="M12811 31 c-9 -6 -10 -11 -2 -15 13 -8 31 1 31 15 0 11 -11 11 -29 0z"/>
<path d="M14311 24 c0 -11 3 -14 6 -6 3 7 2 16 -1 19 -3 4 -6 -2 -5 -13z"/>
</g>
</svg>
